<mxfile host="Electron" modified="2024-04-13T09:34:47.020Z" agent="Mozilla/5.0 (Windows NT 10.0; Win64; x64) AppleWebKit/537.36 (KHTML, like Gecko) draw.io/21.2.8 Chrome/112.0.5615.165 Electron/24.2.0 Safari/537.36" etag="mwlKzZWjq0CdzlWJmJPt" version="21.2.8" type="device">
  <diagram name="Page-1" id="2XWkQP5S-hDbL94sL5Vg">
    <mxGraphModel dx="2058" dy="1180" grid="1" gridSize="10" guides="1" tooltips="1" connect="1" arrows="1" fold="1" page="1" pageScale="1" pageWidth="3300" pageHeight="4681" background="#999999" math="0" shadow="0">
      <root>
        <mxCell id="0" />
        <mxCell id="1" parent="0" />
        <mxCell id="HT3JYzme7oOu0LbbBRVU-1" value="C++" style="rounded=0;whiteSpace=wrap;html=1;fillColor=#dae8fc;strokeColor=#6c8ebf;fontSize=52;" parent="1" vertex="1">
          <mxGeometry x="1250" y="270" width="370" height="400" as="geometry" />
        </mxCell>
        <mxCell id="HT3JYzme7oOu0LbbBRVU-2" value="QML" style="rounded=0;whiteSpace=wrap;html=1;fillColor=#f8cecc;strokeColor=#b85450;fontSize=52;" parent="1" vertex="1">
          <mxGeometry x="1640" y="270" width="370" height="400" as="geometry" />
        </mxCell>
        <mxCell id="S9IRetqxCuwVArKSv5vH-1" value="Enums" style="rounded=0;whiteSpace=wrap;html=1;fontSize=30;fillColor=#dae8fc;strokeColor=#6c8ebf;" parent="1" vertex="1">
          <mxGeometry x="1260" y="80" width="680" height="140" as="geometry" />
        </mxCell>
        <mxCell id="UVmHHnLCvwMdaiuQiLW1-1" value="" style="shape=image;verticalLabelPosition=bottom;labelBackgroundColor=default;verticalAlign=top;aspect=fixed;imageAspect=0;image=data:image/png,iVBORw0KGgoAAAANSUhEUgAAAxcAAALDCAYAAABn+P2xAAAAAXNSR0IArs4c6QAAAARnQU1BAACxjwv8YQUAAAAJcEhZcwAADsMAAA7DAcdvqGQAAKG/SURBVHhe7d0LlBT1vej7HzD7iDwcYUbHAQYGQ4ZHFCODgR0CAuLx4ItJIl7IOSvLJNsbYSWao3EvZblWcC0vuk6iO3FngVluIzfn7MBRYwBj2G5RFMSAMhrR8JhN4shjxsEZcEQEzx3g/v9V/+quqq6qrq6peX8/rpbqmq7+V1d3df9+9X/1mz133llJ0dGWZrMEAAAAoC/pb/4FAAAAgHYhuQAAAACQCpILAAAAAKkguQAAAACQCpILAAAAAKkguQAAAACQCpILAAAAAKkguQAAAACQCpILAAAAAKkguQAAAACQCpILAAAAAKkguQAAAACQCpILAAAAAKkguQAAAACQCpILAAAAAKkguQAAAACQCpILAAAAAKkguQAAAACQCpILAAAAAKkguQAAAACQCpILAAAAAKkguQAAAACQCpILAAAAAKkguQAAAACQin6z5847a5ZTcbSl2SylaNpdUnZLtbmTdWr1t6R1h7kD9GrF8qN5c+Q7Q81dn/p9m2XB7lZzD4WplCHLV8jgslppXfKwnDJr80rpe2mgKrN4crm07VolLau2mrV9ifPZPi5PvvyS/LxdH+PseVK/b6c6Jw6Z9QCAztIjai6KykeYJbda+bzPJhb6B7RG3vl6/tv6ScVmm75h4qSrXK//KvlR33r5SKRCBpSpf5oOS5u9IpZUvpcqFslglVhoRWUjpcha6j4mVkySR+d5z6lHJ42SiebvYZJu127FI2WOScArx4+UG+zFbsR8d8+b1PHHAgC6SI9ILtrW3SVNS75lbsvkRJNaWWAgAACBKkxQX+B3SirfSwe3y+d6O2mUU3/e3q2+026YfpWsnVolVw51V5cNlSvHT5W186aFBu5Jt0tF62HZfNxerN93WJ6zFwEAnagH9rlIdpUR6Nla5eeb1sllv3duO+VV8xe0T1H1FVZyceqt9jRJSvq9VC+fLtfJyV3Suq7erOt6ugbwgXKdHByXV/dtlkXO5+5l9bnTwfvQcnkg4Op70u3Skz1PaBIFAF2j5yUX074iA9U/7QsEepnjddkfcd+NdvhIzZjpcveDS2Xt6qXyyMJSs7LnKyrXzZIa5XSDfT+RXvW9NEqWjLdrHV7d+ZLcrr5D9lj3lNZDcvsmk9gOrZIlFdZaI+l2fclQudhdoQMAvVCXdOguqpgpA6+vkXMml2faGLft2iCtq9bmvepXVPOwlFwjcmLFXfLpQbMyUqUMXPJDq12zu6wTf1grp0boDpkjAp+raNoiGTz/ChlYZreH1sFH26437e0iyk26XWF8nXt1crFpd/aHPErxJFk/t0odFaVxp1y2XV/dK5YbJk2Qfxhfbq/XjjfKfW/ukOec3CTpdsbEimnykH5c5of1uNQ37pN79hySPUH5T8Ly9JXTtSbA0WUU2kF0YrEKkK4Y72nSUa/K2Lxvr/z8oPuJRsmjX58qV5p7wR2qve9T0GPil+cXp/x0zbpjqSy93NyRY7L+J2tkzQfmbmpM5+qmVdK0aqs5n25U55P917amWjnxxMO551LFIilZdqMU7bK3yxXWadu7vi1ueT6xv5dCOoFL0wZpWZ7/+09rz/dnLOpcfWeq+v6K+l5xHpM5N13r4mzneYxzntjn6ws6SXGfE8d1LchOuT3nfPB9D/rEOifU+fejieNlTvnQzHeKPv/+JeA7zKtYfadNUN9pQ9R3mrMD5jtNHQ/Pa1eveb3nuy+C+3gCQA/VyTUXOtBXP8LLlniCfa1o8o1SsuphGZLnipZ9lbFB2uIE6jrgWLXCGonFX1bxsoeleIr+kQ94LhUAlNyiAwxdlkM9h7PdtExo65V0u64y5DwruH1U/UA/4A7YLcdlf9iPa0Hb6cfVyFoVUHh/XNWPeflUWTv3Knm0Ik+v66T7WRCVuOi24nNVwO5pK64+tUPL5TtT58j66aPMGu2QvNhoFpXKESNzm3q4Opfq/dx82L2jhZbXR1RMl3NUYN8mI2WI/q6wzifzN6WorNo6l3K+J9Tx1+d4W2PYF0NYsyWzftdhKVr+2/jl+cT9XgruBK72O1Z/i/Z/f8YxcegQ69/6hsPhFyw+UYG0/rc822n6hpH2916s7dRnfpy1wuviiQHnhFq+Up0P76R8PliDP6iyvuNKLDR9/j0wN2IwDPNdZH+nuc9d850WMJBErMQCAHqJTkwu7CuEOtAX3Xlx9TJpcXWGbH2hVv24lsvg7y3y/Gh6zZRzJqt/dr0RY7jImSoouNF+rqYN0rrCKetb0rLaLmugfq6cYEPt53yddNj76O6wmdnulh8G/Ign3S4FQ6vUD5ozKkv2lnekKPUj+tAV+ofc3Hf79JPwACH2dvrKYsjjMnTgMDV6VKek+1mAG6arxMVqKx5OBw6Put6/5w67sgu1j9f4XsNEFWxlgpbGfZ4alCTldbUt696SWvOSG55/sQNqLRSTJOhgebA6Pz3fEytWySmr87P6nrh+pl7IcIL2tsaQfgthnbad9bq8Mt/3UkR5XvG/l7ydwNVNfTdY68P2OyON7894xp1nfy4/OB6Rtbd+IvbbP0S+YH3ui+ULdk6SZzunw7WznZv6LlDnRH1jndz3stO0c7Pct8/00M45H/z9kOzbIufxUSqmmRpOu1bE3ax00c5GKwGqHB/0vaQSCyv5UYvHG+XJnZtdZet91dsOlYvPsx9tObjD9RjTNCysKSu1FgB6gU5LLopqfqh+vNWCrv7XnRd31Lt+5Ovl1LqHpUX9mLc+EVG1bwKB8KuTWQOXLLHaQItuJrHc2ySpbYcqy/yoh3bAbHpTTqh9zFL7q7fTP+RRTR+SbtclhporauoHVv1IZn/s1PKeqB+5mNtVTPA2WWjM/og7P+C2ofKdK6I6eSbdz5iKJ8k/uCqbvGXY++q4crxrPw8ednWqHipzRrojkWK5ZkT2xb962LWfScvrah9sl5/eu1IW3bJS7ny6A+azUTJX9oO+Jw5uVd8PG+z7vmFb8/abCKnZcDpzF1qeRwHfS372683f3yOV789YnCThuPztE2tFCPX3wBg+33bRrKZM23e7miS1ynO7X8okDFeOTKP2olh+NN4+Ae2+Id5mTHtUMrDAOgf957Su7RhvN0W0mnXt8DVd1Puqtn15s9zerb7nAaBzdVJyMVMGX6O/zGulNapdsfoxj2zbnAkQ8lzls8aOV//qH+I8k1LldsBUP9r6amXZjVK8ZKYU5Vw5Vj/kgfuYdLuu1ij3vax+YNWPZPYHVi1HXHy05d/OaSZhU493tUXWP+D/4rrwH3Tl3yvpfubnqWFQdBMMd02Qbv6Q4WnOcUhWua6SeppGeZpENcqLrvc+eXm9n5MknAgLklVCl7u+UoqswPvN0HNsoNUEMve7I1l5PnG/l3JUysAvq/Ij9tuW0vdnt+dvOpi157C5GKGbSFpr2sE5N1WCsCrseJkLB97mjs4Fg+Py5JsRfdxaU/hSAoAerHOSC6fpQazmTOHsACH/JFXO1ciodsxRVwxPrVomrbsapWjyEilZ9lspW/WwFNeohMH8PUzS7dotpIo9TgffV3fm67gYLP922WYSluPHZb9ZdHiaFeWRdD/jcJqBxONtzpEJejRXguRtEuUdb7895fVuJkmI26fKYfpphA8D6zyv/3xPWJ5P3O+lXDGHr03p+zOeVvnrp/pfX9OeHGGjHuXbrp3SSLbV+WedmyHNSe3b1MxgCVnOa/5U/kr+AAChOie5CGmSUBjn6mT+K4nO1cjPa8OuJJorhqFBRb1KFO6SphXZtswDr1EJg5UsuK85+yXdDj2HL7BwTdqlgw+7GUVEk6iC9aVAxulcHRFEO4G2+3sg7/eLE8T7awgSlucR/3spR9zha1P5/oxv/yf2B3rM0Iistvg8GWMtOJ9PJynJt51To0eADgC9VSd26G6vmFf5Yon5XAdNW2bdadLq3KmThRidspNu16tkgw1LwBVHb7OpruMEU7ZGuS+gFih72+Gb9bdVXmhwNY3StRIRTaK09pXXi5lgOyqIHni9PUiDOyDP15m7yDxvzvkeo69EUHleyb+X4va36Gx7jtsnbuAIaEamZs5VK+fURMbaLqAmM5JT21DodkGcEav0sK+B55zrFjikbgq1iX2suSOAvqVzkosG+4e36Jpv2j/yQSryNB+KEXh4lcsA0zfUSw/naDp75wQEM+3+Euaeh+7cuVF3Ag963qTb9W7eZk/l8sD0UZmgQ8974e7UrEdeeaGLrmR6mjbp/Zw3TW4odkcPekz7SfLopODOpHt278t27NZDczqBkFK/b29OctDe8oJUjp+gnsPc0du3N/gJ0sGT6OVLEvRQz8W6L5WvCVJUZ25r/gkzr4T/uyPTmTtEUUh5HgV/L2XZ+x2jSVYa35+FcAYqCJ3szjVZnrtWrpDt9gUF7WFNqrIdsCOHuY3LqW0sHx89Sl0OZ/jpPANQqHM59G8Zfam5I4C+pnOSi4Pb5XNrSMdqKV5+lwyscDURUst67PayZUtiNR0q+vJ0tb25o7cNmDuirdEOagfeosuyFi16Qq5iazhH+35OsFFTIwN1f4nl9pwUnh9r9eNdbA01myvpdqmJajs8rwtHGzq4V550X6S3xoC398saI96sVplFdAfJxFQQMNd3PDI3FdCbR0nr7pzO5Q/MneN6rB7TvkquHB8WjLjnvFDbZjpkh3RQbXd5mneeDavczGudIw+NTD9ymVUzRarNSxtx3dWy2G4Xkxo72Nbn7W+lxNNXyXxHmCTh1Gr3JHgOe7jYzDb6vNPzVlxTLqd22QcquDO3+veaFYHlOUlJcHlecb6XvJz+HtUy2PW9VzRtpuc7y5Li92c82YEKrpx6lUpyXcGyNceD6Y+Q0yH6kNxuRjorbLusK6fqIbSzFyGsSe4yE+U1yr+kMlFkq/x8n95P/f2g91OV5zld9GSd02S9+zvCeG5PnX1hQH/nzpsmP/LM0aMvCqjt1Lm8NnRODm+Ckr0goKik5IZ8c/4AQA/QeTN0OzPomrt++WeYVcHCKlPj4KZHhMoZQSXksVpTrbT+eYQUh8yma8+06wSHAXatskag8u9n0u2SiZ6Z1sMaMtEVuLtnvlZe3bku3rCJSbezJtELmaPCooeXDZh9N2F53hm6o+jmSO4mR3pSu6l5554InfXXmXnYzX/sPdpZnkUd28COp0pk2cl07AzdZqZs9b7ovkp24J2r7YVl0rLOV7MRNuu1ei59jp+q1uem/3x3yqtViUO1Z+K8LD2fxD9bw76GK+R7ySvsO+PU6m+pMs0dR7u/PwunJ3kM/XweV+fPpuAme4Vv53yfHZf6486w037xZ9t3vgPyzdCd97tCz2Px5o7cMn3fTbny7Gvk9v7vJQDoeQZUjr14uVlOxcmTn5kln0/ek5PP18rp0ZNU4DA0W2Wigv0Tz/xSWte9JmfMqmAH5PNdfydFVeOlyIxC1Ka2PbnxRTl1+GN7RYZ+7BHpVzxK/pMqy9KkAoVnHpTWf90oZyZcI4PGNcjJ3/4p58f4zN5/lxNm2/6u/WxT2/8fvf26XYE/4Em3S2agTL94rFx+jrkb5f+0yDN/+0gyKd/AC2Tx2BI539z9oGGvbIwzLn3S7eQT2fi3vfLqiWKZOnSonJ/ZZxVINL4rt735jvzPI5+bdS4Jy7vggovlptI4B+ZTeXnvYakz90Q+l7pD78urjZ/K8YFDZdjQczJl63ber9a/K/fsekP++VDAvmqf9JNJE0d4Aob6+l3yzx+FPL695VnUsVXbD1TbX662d9Sr7d9paJCdH32Sfd9T8MGHA2TshHLRfdUbnn9OHn495FxP5FI59/+6Qor+9r/ko5/9Pud7QgfPx5+4X46/4T/XlcN/Uo//qkoQnEBRnesv/C9pffhxOaU+M/9pzi3qb3W+890uT7b9Uo499pKvPJXg7NqsyntETuwOKM+jkO8lrzN766xy/ft94qUDud+F7f7+LJz1+Qw7b7fskW1mjZ+9XX+5YOh/kspznA3VZ3qf+kzvCNrOfJ/9nw/ktk1b5RlfmXpSvZ+9+Yb8JkZioTnfAR+31Mva0PNPpPmj9+Uxc/4Enn9qX/8QtPnnH8navY1yuP9AuficgGOz6Z3g7Rx6e1XupFKVSGWOjz5vG+X37+6V33wStTEAdH+dV3MBAGHMlXkJqplAl8tc5dedoLv5LNJxay4AAB0jcwEMALpKZm6agieiQ2fIDFpQPlXWuwZm6I4Km0cGAJA2kgsAXS5qxCd0B3ZnbZ36VboGZnjn61cVOOJSinRn7wrvyEy6Q/UDVjeW8Nm+AQAdi+QCQBdzRk5q30zZ6GAHd8iCl3fKk43uIeC6zsSR4+U7U+d4RsrTo9Bp9Y37YnX+BgCkjz4XALqYGXEpxghLQIYeunXiVPmH8uy8MlZn7H0Bo88BADoNyQUAAACAVNAsCgAAAEAqSC4AAAAApILkAgAAAEAqSC4AAAAApILkAgAAAEAqSC4AAAAApILkAgAAAEAqSC4AAAAApKKbTaI3WW667xtS1fKaPLFqkzSZtfkl3S7EpYtk2YIJ5k5W3frl8sy75g7QV3A+AACAmLpVclE25wfyvRkirz/+S3mlgAwh6XZh7OcrNfcce2XDA2vlPXOvrwo+Nn7Nqb0XPYlzbHpb0M35AAAA4uo+zaLK5kmNDmDqthQWlCbdLkLT5l/KigeWm9tj8nqLWqmSpo/sP/dpF1yQL7HQmqW5jyUWIhfJxAn62KjXfsRe01twPgAAgLi6TXJxyZVfkxJ9NfSpXWZNPEm3i+9CKS1R/7QcaX9zqx7vIvtYWFetnWAz6NYXr2g7n5O9sqdXf1A4HwAAQLjukVxcukhurFLxyrZXCgtKk25XiEsniSpC6vZ0VPLSg5RdIuN1YFm3m+YwfmUXqiRX6e1BN+cDAACI0A36XFwks5fcJl+VQjtjx9+urGyyTLxyloyvKrUDQKWl7jVZ91T+8grvz3GRXHLzTTLDV9a2VzfJexfqjrGlgc9Vduk8mfm1CVJV4jQ7albb7bW3iyg36XaJmI69Ldsek19t/tCsjCfnOKr35KZvzMrud8te2fDs2px9TrqdlKn34Urv+6Af+/prr8gr74bve+Ly2nNs1LY16j0syexos9Rt2yJbN+/yfT7NZ75E1xxF1A6VzZPv3/o1Kal7VlYE1OjFLy9X4ecDAADoS/pPvvRSCbsNHjzYPKwDXTpbBUsida8VOMpTrO10oK+CoVu/IV91B5lKSdXX5Hv3/UBml5kVIew+BjH7EOig7r7b5MaAsm689Qdy00Q94k7Ac6lg73sLvuZKEDT1HM52l15k1vkk3S6hslL7WOzbXVjwrLmPow5Ql6n3xLPf+oAFHOMk2+ng+fu35r4PUjJBvrrgNvn+nPDjknQ/7WOjco/mQo6NSlyWLFfvoTvQ10qlasY35HtL5on34/mh7Nmrk/dSKQ393KoE5Bu6qWCzvP6qP7EotLxcBZ0PAACgzxkwbfrfL7/00i9JWdmFntuRIx/JoUOHzMPiO3nyM7MUhwp2/u+ZUtLymqx7/m9ywqzNL8529lXeeRWD1HKz1K3/jax75g/yb1teka1b9sqxAUOkdPRoGV9ZJHU7w55jssz6+kQpqdsiv/tLvmhK7dN/v0Yq9KLarw3/+mv53UZd1itSd+wiGTNhtFTogK5lr7zmKU/t5zf/i1QMsvfxV2of9TZ6H+uODbG3m1ApA/a9IfWenUy6XXJjv3KtjC8ZJBXVs2XmrNzbpAF7pbb+U/Not4tk0qypUnFSvfbPvyLfu3q0tNQ9K2ue/d/yb9YxUu/HsXp574h/2wTbqcTiDhU863fdeuwq9VjnuKj3fMroUhk0Ouy4JN/PK+bPUu/FXtn2zHsSrz+3+rzo4ZP1+7ft32TdC04Z6rbvqAyonKg+L6NlyLFXZLfrCU8MvVhmqvd20KmQY33p9fKty0ulZdtv5Hfvuf+erDyvQs4HAADQF/Xf9e678u67fzF3bfq+Xt/RyubMkip9hfXZwmot4mxXNucmq2ZDB/pPPPBLeebdD12P/VDe27xWfvX4s7IhqmzTjr7lo/zh4iU3q8BNL+imKKu8TZKa3lVlrd9r3wlrk6+Sjq2e5jpqf/V2DzwmG6KaoCTdrmBOZ+4kTCdgmSA1C/RQrY/Jr57aJU2ZfVPvR2BTpUK3UwG0Siw0PRys9VjrnqaOi3rPn9hmX/kfPymo9qKd+1nACEr252Wv9R49o5sjud+npl3yyrOviR6UqaTUt59Hmu31F1xo3/dQCefX1OvXSbevaVbi8twKOB8AAEDfNKBy7MXLm44ckX7qP11j0d7EInbNRdk8+W81E2RQ3b/J/3zDHenkEWu7yTL/v1WrQEgFU49skPfN2hwnmuRI1FX9i78i10wolUNv/yHiaq6i9unr/3m0DNKJzP/7p+BakLJLZKZ6rrrX/rfvuT6VIRfPlvEVo2XMRUflUHOTnPA8wach+5h0u6Qulqn/RV+11snT/7avePtuwbUWStmlMrNaHZ9Bg+TQ+v+hEr2Qx/kVuF3ZnIVy9ehBVr+H/7kj+LEnTp4nk9Rzlpw6IFv9V9/bu5+Hdsq/xbqib2oAdJITUgtkPZ965MmDO73H9cRnMvRLU6ViUEtOjVvZnFtkwfhBUvfir+VNz2esHeW5xT0fAABAn5UZLUonFJteerlTaiy0Dh161lxhbe+oRpdYfST2yt48h6Rs0gSrvJa974XXpJj+CkFzILz31GOyoa5ZSqq+Id+7dbksu+8HctOcyXnbvyfdLhEzSlCiq9YX2n0fdNBf0ORyBW7n9AdI0ifE0t79jHtszLFM5kNptqsY5AJ7hTFZZlrzvTybu+/tKi8r7vkAAAD6Ls9QtE1NnXQ58tIOHnq20GAvkGkGFKOpS/6g1jXBWmD28aFKFH4pKx5XycK2vdLidLC1koWoTtlJtytcsg7LNjsoLTzoL2w7p9lWns7GEZ+NpPtZ6LFxHq+bbgXPE5K9BY089dFHumnXBJlwqX1fs5s9BXXibn95tvjnAwAA6Lu6YJ6L8Hbh0ZJul1Sak4XFbJPfpJIF3RdEB3qPPyt1LTpZuCnviFaJtytAZpSggvO1mEF/jqTbRTGfISU3EUhenn1sCr+iH9m/IUJTsz3cc2b7snkyw0q6n4nsY5O0PFua5wMAAOitOj25cDpaFzr0bEHbOZ1eZ8yWS+w1ucryNB8quBlQqZQG9bFVQWums3dOYDZZbro5ZD+adskzr+lO4EHPm3S7pJyr1klmny68s7Ot0O1McyHfFX03dyf/rTmJQNL9nCwTrA9K/O0yycGES0I/g2WXXhT++Xx3t9Spf+xO3Sphsoae3SvbQpLudpentadZHAAA6DM6ObmIaBceqcDtmt6TfSbQvHHJIrmkzHXFVk+udrM9f0FNjKZDOiC7xIm69LYBc0fYzVREqhbosqxFi57g7qYler4F+74/MLNGvdL9JZbYc1J4gjs9eZu5yu6XdLvk2nHV2un/Uui2CbZ7b489IlfVAvu4ZKhjMlvPd6I/Q7rpUNAIYZ24n05yICVfs+aW8HxmnH1dcJvMDEmSVPZs+l1cqD5jZr6X9RGT6rW7vKw45wMAAOi7OnWGbj0pWZLZfRNtpye007MUm7t++WfoVkG6nhfA3MvQI0LlzAge8lhNz+i8t1RuDNl/+7XpoDeESqie8Aypaku6XSKX2rNP5xM4O7XZNvBvURJud8nNyzPJXC6VWIR9htq5n/no/g6exDjPdnp+jXUR75/9OpulpUX3IYkxu307yyvsfAAAAH2VNRStWU5F6FC0HTr0bIATf5NaPenZRZVSWjLIGmbTooL91198Rn63eVfIxHmOJtm9r0jKKkeL2tzSorb982tvyF9yJlHTjz0qA4ZeIBWZBzdL3Yu/kXXPb5fPxn5Fpoxulrc35k6wdqL+DXsSM7XtINd+tqjtD+ntN/81MHBLul0SZV+arfY/cwRDBQ1j6mxb6PClSbc78hczaeEFpTIoc1DUe/H2v8m63zwnfwl509u7n9GaZd9W36R9R96z3r+yygvU5yu7vU56Nz37a9moPutRn88j/S+yJ9MbpBKmf10b+roy2lleYecDAADoqzqt5sK+0rpXNjwQ0XwjQNLtAAAAAHSuzulzcWkHDz0LAAAAoMt1QnLRU4aeBQAAANAeHZ5cdMrQswAAAAC6XKeOFgUAAACg9+r0SfQAAAAA9E4kFwAAAABSQXIBAAAAIBUkFwAAAABSQXIBAAAAIBUkFwAAAABSQXIBAAAAIBUkFwAAAABSQXIBAAAAIBVdOEN3qcxaeIXUTBkrI8rNKnlfVt6yUbaYewAAAAB6ji6ruZh1x82y9Dp3YgEAAACgJ+uimotSWfzgzbJAJRa1jz8lP90Wt7YDAAAAQHfVtX0uGt+Sp0ksAAAAgF6BDt0AAAAAUtFFyUWzHP7QLAIAAADoFbq25qJ8mIw2iwAAAAB6NppFAQAAAEhFFyQXpVK5cL7UXK4WG4/JAXslAAAAgB6u84aiHTNdHrl/iowwd6XxfVn/2EZZ84G5DwAAAKBH67JmUQ3qdtheBAAAANALdMEkeqUya+HVsvS6YdY8F/fcu13qzV8AAAAA9FxdUHPRLFueXiMr31aLjBYFAAAA9BqMFgUAAAAgFSQXAAAAAFLRRclFqYy8SP3DULQAAABAr0HNBQAAAIBUkFwAAAAASEXXJhflU2ThjFJzBwAAAEBP1gXzXNgqFy6Wh/RcFx7vy8pbNsoWcw8AAABAz9FlNRf1T6+Re55/XxoazQoAAAAAPVqX1VwAAAAA6F3o0A0AAAAgFSQXAAAAAFLRKcnF6NGVZgkAAABAb0XNBQAAAIBUkFwAAAAASAXJBQAAAIBUkFwAAAAASAXJBQAAAIBUkFwAAAAASAXJBQAAAIBU9Js9d95Zs5yKoy3NZilLz3Nx4EC9ude7Vc6YLguvHyvV5cPMmmNS+3ytPP10nXTEESi0vFl3LJWll5s7HsekofFjWffYm7Llg9z3UKRUFj94sywoN3eDNL4l99y73VvujPmy9tax5k64huefkjufDio36DWqx7/9lqxbt13tq1khVXL36nlSbe7FUfv4SvnpNnMHAAAA7UbNRYpm3bFYHrp1iicIFhkm1dfNk4cenC+zzJq0pFveMBlRPlaW3n+zPLKw1KzraiqhCXyNIiMun6L2dbHcPcOsAAAAQJej5iIllQtVEHydDoB1zcGL8vTTzfYV/DFVcvdt81RwrJaDruwnlLQ8p+Yi56r9mFKZ9ZWrZal5zvU/WSNrMrUCeYyZLo/cP0VGRNVcFPza3TUl6jU+rl7jNvMa1d9mLbxCaq4bKyPe3iSLflFnrc3lPEeBrwcAAACJUHORiipZaAXlOmhfIz91An3tgzr56b2bpFYvl0+Rhalcae+A8j5oli1PvyjrG839rjbjCpNYvC8rVWLw00xioel93Sh3/uSpiMQCAAAAnY3kIg0zvmC39W98S54ObMOvAv7H37eWqqdWWf+2SyHlXT9dKq2lnqRUFl9v99OofXyjq1+FT2DfEAAAAHQVkosUVI443/q34a394c1+Dh2TBv3v5V9od9+LWVPtwDtWeeXDZLS1Ig/dLOqOq63agoa3a7u2CdGYcXKFqbXYQYdrAACAHoPkIgWjR9hNlBobIq6kf3BU7BZH58vIMdZCQqUy8iJ7Kbq8/fKmVWBwedW3LpW1q123+2+Wpep51z/+lNzZEU2NyqfIQ+7yXLecTtmjhskI/e/bf5Ut1goAAAD0BCQX7eYE+8fk0CFrRYijcijV/gz5ykugfJgsuPVqFex37WhRTk0QAAAAehaSiz5Kjxa16Bb37Sm55/G3pEEPZXtrBwxHq0eL8pSXvTHXBAAAQO9ActFuzXL4Q/3vMBk1yloRYriMsvoRpCVfeYVqlvpt2+XOn+gEQ2TEdVekPi9HXPUNH9sLFw3vgZ3RAQAA+i6SixQcaDhm/Vs+IuJq/5jhYucWH8vhdnWWdpKZfOU5naILLC9PX41OUWhndAAAAHQLJBcpcK60j5gyLvRKe+VXxqbWSXnLTnuY2VjlNR6TA9aaHiST4IyVmm4zWzgAAADyIblIw7a/5pm0zjXp3c4URmIqpLw/FDgjeEiNR+WM+fLIHcFzdGQSmQ+PFlZWqGb501t2bdCI666WxWE1KGOqZHEXdz4HAABAFslFKurk6eftYLj61sVy98LSbI2CCoDvfnBenknvCuWaJC+18tRz6ATi/ilWotDw/JuuGpZS+fvrVQJx+TyVYEyXWa5gX29ze5qJk1GfmS18mCy4X7/GKlctjbOv86zRrUKTDwAAAHSqfrPnzjtrllNxtCV37oXRoyvlwIF0rml3Z7PuWCxLL7cD7RyN78vKezemOm9DkvJm3bFUbWPuhNEjO93rr/EwSUtIp/SGtzcFz4+hkoC1t9qT/kVS2y/K2b5UFj94szWxX7BjUvv4mojRppztj8n6n6zp2okBAQAA+oABlWMvXm6WU3Hy5GdmKau4+HxpbTUjAPViH+x4T3Z+VCqTRgyToUPNShUAN7y9Tf6f/2eHvGPWpMUub4AMGzFQRgw916xVAffz2+TRR4PLGzP9CtPsKVeDSkheXvuiLH+yTnLfrRZ5/aX35cjfDZKRVer1mbW6T0ft2ufkJ08fNCt8Rn9RbqoOSYDcPvybPLOjxdxxfCbvvfRm4GtseHuP/M/H/k3WvGtWBRokl877kkwYekr2vfKevNdqVgMAAKBDUHPRQSoXLpaHdHOhwCvyAAAAQO9Dn4sOUv90rd3p2uqn4O4vAAAAAPRO1Fx0JN3p+FYzklJGtv1/pnYjlvdl5S3p9tkAAAAA0kTNRUfatlHu/MkmWf+2PZIUAAAA0JtRcwEAAAAgFdRcAAAAAEgFyQUAAACAVJBcAAAAAEgFyQUAAACAVJBcAAAAAEgFyQUAAACAVJBcAAAAAEgFyQUAAACAVJBcAAAAAEgFyUWnmiw33bdcli2ZJ2VmTTxJtwMAAAA6T7/Zc+edNcupONrSbJayRo+ulAMH6s29vqtszg/kezNEXn/8l/JKk1kZQ97tylTy8Y1ZUlVSalaItNS9Jtte3STvFVBOIcpUmROvnCXjq0qlxKxrqXtW1j21S/IWeekiWbZgglpojjwW9uvOviZbsypnb+zXVuh+Bpfpl93veI93aXlNnli1Kf8xAgAA6IGouegsZfOkRgehdVsKSizybaeD22W3fsOTWGglVV+TG2/9gcxOvarjIrnkZhVQqzK/6grYtZKqb8j38tauXCSzv6YTC61USi80iwEuuCAoaFdlWq9tuXx/zkVmXZBk+xlcpl+zNCfNDlqOkFgAAIBei5qLTnLJzcvlxqq9suGBtfKeWRdH1HbZq+bNUrf+Gdn67od24FqmAvgrb1NBtVpO9Uq5et4l6nmtSN1XphXM36T2tVRatj0mv9r8obU2h1VrUSqvr98r4xd8TST0sU5ZvtoN9douudIuRwsuK+l+OtsV/j65Oe9L3frl8sy7ZiUAAEAfQM1FZ1AB9Y0q0G/Z9kphAWvUdk6Nhmmi80wmeFaaPpRXnnpMXm9RyyUTZGJKtReX3GwCdp2wPOArUz6U9556RjZse1bWhSUWOnjXtRYte2XPu0dE7164C6XUKks9NluI9dree+qX8sQ2O4ktmTFbLrGWshLvZ9klMl5vV7c7cWKh2bUfzdJ8xL4PAADQV5BcdDgnoH4tIugOErWd+ts3vmY19albH9Zn4UPZs1cH4KUyflJU86GYTKIjslc2hNaEqMB9c0Sfi0tnW0F/3WvZ7UsuCGkXVXah3ZQppBlR0+Zn7ORJN61yJ0/t2c8L7eZTLR+1JyuYLBOs8tvRdAoAAKCHIrnoaAEBdSxR2zlX2FXisTWi2U1Ts7m6HxbAF+CSiXY/ibr1SZsLTZabdCfuzD4fkWarZuXC4D4aeQP9D+3tff022rOfZaV2jcO+3YUkgT5OUtTO2g8AAICeiOSiQ/kD6riityubNMGutSg0YUnMuRq/V/Ym7ENQNmeW6KfI2eeSUrnALLo5SUJLc3ig/9FH/v497dtPuzlTqXz11uWyTA/967tFdyA3Uqn9AAAA6JlILjqQHVA3y+vPFpYERG93kUycUFib/nYHupdOshKD5FfjJ8tMq3+IO+h3ah6CXGT3t8iTJOSM7NSu/XTKbB+79iM6KQIAAOitSC46SgcNPZvp6ByjTX9agW7meXKSFDO5n+e2KKeDtVNrEdyh3ddnwuJ05m6Wj+wVEbJJVvv205RZ96yseGB54C10BCwXOnMDAIC+jOSig1xype5wvVc2PLXLrIkn9nZ5A+/CazjyyUlSnP4Fbjm1Btlai22+4Nxu1hQw10Wezty28I7TifbT1Hq0r5aHztwAAKBvI7noCB0x9GyhMp2+fUO5tkNJqa/PQdMm+ZVzZf/x16yhZf3B+SU3f8NuqiQT5EZf7UHozNZx+i1ENIFKsp+p1PLQmRsAAPRxJBep64ihZ92cUZaCO0I77BoQ9XR732t3p+9Yo045CYE7OC+bJzPszCKSPxmwO3NHjdpkOrwrdXuyNTyJ91NJpTkTnbkBAEAfR3KRsrI5NyUaejb+dk5H6AkyI2T0Ij1DtDXXQ8EJTogjzfaEd1WzZHbIhHx2QuDtgO0kOKH9GNbvtR7nTQacjtVhTYtUErbE1Iao5/XMgJ1wPzNltrOWh87cAACgryO5SJXpX+APevMqbLv39pigfMZNctOlrgSjbLLMvvkHprlR4aNUhWraJNvq9IIepvUH3jJVYF526SK7hsLdDyRTaxHRf8RJBjxzXYR05i67SC6Zs0i+f59r9m3/8ybZT4tTZlQfj/zozA0AAPq6frPnzjtrllNxVAVufqNHV8qBA/XmXu+lawy+N0Pk9cfDZs0OlmS7S1QScWOVfaU8V7M1c3dhCU4+usbABPYhWrY9lhlR6ZKbl5v+I9l1ufQoTt+QKp0oOLNpq6Tk+7eaGo8QLXWvybqnwhKnwvbTopKOZaaZVZRYr0UnUw8knWgQAACgZ6PmIi0dNvRssPee+qU8sX6vfeXfRQfeG1SSkm5ioX0or6x6zC7TU2izKdM1VKvpmJ6o/4jpt5BDJa2ZckITC62A/TSc5kztQmduAAAAai7SYl+pL/yqddLtsrhiDgAAgO6B5CINpllNdLOZAEm387GbVZVaNQUbnt0k75nL+mVlIk1qOfP3WEhSAAAAkAzNotqto4eeza9p8zPyutW86Gty462ueSS+Mc/qKG13NAYAAAA6FjUX7eTUCtStX15QP4ek24W7SC65+SaZUZXts9CiExenozQAAADQwUguAAAAAKSCZlEAAAAAUkFyAQAAACAVJBcAAAAAUtEpyQX9LQAAAIDej5oLAAAAAKkguQAAAACQCpILAAAAAKkguQAAAACQCpILAAAAAKnolBm6u06lDFm+QgaX1UrrkofllFmb17S7pOyWanMn69Tqb0nrDnMnhoGqzOLJ5dK2a5W0rNpq1gIAAAC9Uy+vuaiQAWXqn6bD0maviKWofIRZcquVzwtILKRikQxWiYVWVDZSiqwlAAAAoPfq3clFhQnqC0wu2tbdJU1LvmVuy+REk1pZ4HPIwe3yud5OGuXUn7cXti0AAADQA/Xq5KKo+goruTj1VnuaJCWr/RCpl0+X6+TkLmldxySCAAAA6P16d3JRrpslNcrpBvt+ItO+IgPVP+1LUDrYmOly94NLZe3qpfLIwlKzEgAAAOhcndih23SublolTau2StG0RTJ4/o0yUNcKKG1NtXLiiYfl1EH7fkbFIilZdqMU7bK3yxXWadu7vi1ueT5FNQ9LyTUiJ1bcJZ9GPTakE7g0bZCW5Wtj1XoUVcyUgdfXyDmTyzN9NNp2bZDWVdHbz7pjqSy93NyRY7L+J2tkzQfmLgAAANBJOq/momK6nKMC+zYZKUNUsF9ySzbQ14rKqqV42cMypMKscIyw+020NYZF9mHNlsz6XYelaPlv45fnY9d+NEhbviQksBO42u9Y/S0qrZGlSpYtsTqBuzt/F02+UUpW5d9PAAAAoKt1XnJhkgQdLA+erId1XSYtTqfpFavklNX5uVwGXz9TL2Q4QXtbY0i/hbBO2856XV5ZY+zyvGbKOWpfZdcbeYex9XYCV7fVtfb6sP3OsGtY9JC1Vudv934uWSatL9Sq16X283uLPEmH25Z1b0lto73c8PyL1FoAAACgS3RacpG5sq+bCelOzjvqs8nAwa3S+sQG+75v2Na8/SZCajacztyFludhEpTwWpNw9uvN39+jqOaHKvlRC0H7KfVyat3D0qKSodYnIppGfbBdfnrvSll0y0q58+nuNM8IAAAA+pJOTC7sJOFEWJB8MGg0pkopsgLvN0P7RgycYvdz8NcQJCvPJ5O4FDraU6UM/LIqP2K/bTNl8DV6P2ulNapfhkqG8vUNAQAAALpaJyUXJkmI0XfBw/TTCB8G1nlefw1BwvJ87MSlwMnzLDGHr3WabsVodgUAAAB0d52UXDidqyOC6KC+E7E7c/trCBKW5+HUmsSo4fCLO3xt3tcHAAAA9Bydk1yYYDsqiB54/Y1WoO0OyPN15i4yz5uTAMToKxFUnlfM2ocAcftbAAAAAL1JpyQXeUd8mnaXFOtRmXxNkKI6c1vzT5h5JfxJRKYzd4iikPI8YiREYeIOXysNduJSdM037SQpSMXMyNdiYRI9AAAAdAOdlFzoYFtk4C2/lZIad7Bsz+/gTD53arV7EjyHPVxsZhsVbBfreSuuKZdTu+zxV4M7c+ugfUVgeU5SElyeV9GXp8tAZ46JCrX9tEpzJ4zT36NaBtdkH1s0bWb2eRwHt8vn1pC41eo13aX+7npuXZY+NsuWSLHreYLMqpki1fZLlhHXXS2Lx9jLAAAAQGfqhBm6zUzZ0ih6vgY78M7V9sIyaVnnq9kIm/VajwK14i45VR00e7ZTXq1KHKo9E+dl6fkk/tka9jWcSmJWLcmtUYgx47Y9q7eJ9l1Orf6WKtPccTgzkJu7fszQDQAAgJ6iE2ounL4L61RQvkxad+kkI8sKnld8Kzex0HY8bD0+SyUFL6yy5oPQyURw8yO7vLY//05ac8pTy1Z59nwS0baqx20wk+3Z2ppq5cTG/DNut61TiUvAfp8IaoJ1cK16PbnHRXRZekK9PImFxiR6AAAA6A46vubCXJmXoJoJAAAAAL1Gh9dcOJ2rC5+IDgAAAEBP0vHJRcSITwAAAAB6jw5OLtKZKRsAAABA99fByUXyiegAAAAA9CydMBQtAAAAgL6gE4aiBQAAANAXdEpyMXp0vlmtAQAAAPR01FwAAAAASAXJBQAAAIBUkFwAAAAASAXJBQAAAIBUkFwAAAAASAXJBQCkacx0eeTB+TLL3AUAdK3KhYvlkTuqzD10tE6ZRE8PRXvgQL25h9RMu0vKbqk2d7JOrf6WtO4wd2IYuORhKZ5cLm27VknLqq1mbcfp7PKAXKWy+MGbZUG5uevT8PxTcufTCSYEnTFfHrl1rIxofF9WPrZRtnxg1neJYvnRvDnynaHH5cmXX5Kft5rViTjPJVK/b6cs2H3IrAfQrSSNC1KKJ7ornVw8dN0wkbc3yaJf1Jm16CjUXPRgReUjzJJbrXxeyBdBxSIZrAJ9rahspBRZSx0oYXlFNQ9L2aq7ZKC5ny4daC6Vtavz3x5ZWGq26Rv0F3L29S+WxWPMH5BL11joxEJUYnFvdGIxsWKSPDrvKnnn6zXmdpU8OmmUTDR/D5N0u3YrHilzVGKhVY4fKTfYi92ITn7U8Zg3qeOPBdJXPV/W/kx9x+jbd7i63B5J44JU4omEOvb33Vb/9Bq55/ljIpfP63O/412B5KIHa1t3lzQt+Za5LZMTTWpl02Fps/8cz8Ht8rneThrl1J+3F7ZtEonKq5SBX1YJSaGvDeg0KkG9bYpKLI7J+p+oxMKsDXLD9Ktk7dQquXKoidYtQ+XK8VNl7bxpoYF70u1S0XpYNh+3F+v3HZbn7EUA3UzSuCCVeCKRzvt91wnGyrdFRlx3NRfKOhjJRa9RIQPK1D8Fn6D18uly/WVyl7Su64yma0nKS/ragDDNsubelbLoFue2SWrNX5KoXHi11cSq4fkXZU1UjcWkq+SBcp0cHJdX922WRb9fJ5fp28s75VUdvA8tlwcCrr4n3S49rfLzTXaZNIly0Vfc/3G6Co/QHpVl55slpCvpb2dn/uZ27u/7ll/o7/phsuA2ztuORHLRW0z7ilWleOqtXtiHobNfW+Nbck8m6PTeErXDRy9XJQt1W171uXk08vMxSpaMt2sdXt35kty+u1X2WPeU1kNy+yaVKOjloVWypMJaayTdri8ZKhe7K3Q6CUFxOkaXqfMH6Uv629mZv7mdHrvUydO6eVT5FFk4w6yKY8x0uds0n6ZZVX506I5QNO0uKZ5fLUU6q7Y0yqkX1smJdVsDMuxKGbJ8hQwuq5XWJQ/LKbM2w+ks1bRBWpavdW1vtmtaJU2rtqoyF8ng+TfKQFNmW1OtnHhCPd9B+34Y3Wax5BqREyvukk+jHhvSaSt3v8IVVcyUgdfXyDmTyzN9Jtp2bZDWVQHbJypvphQvr1HHwO6bES3keBfE17lXJxf3bpdYn1jdzv5+3RxGyXQUK5VZC6+Qmut0+3vD38E36XZG5Yz5cvv16nGZQ3RMGt6ulUfX1Ul90JXzhOVlOsFZdJOfNZFX5v0qx6jA+7ZqqS7PBg8Nqow3//CmrNnm/q6okrtXzxPnkxLcodr7PgU9Jn55fnHKD6Hei7W3js2/TcU0eWeq2vnjdbJo0+5sguDmPKZxp1y23dQQFLKd5zHeDt0v6CTlivHZZlXHdS3ITrn9oL+nd7bzdpD6fZtlgUpwIhWPkh9NHC9zyodmrg7WH2+Uf3lzhzwXuWmxTKyYIA+NHyKVmeZfx6W+cZ/co46H57Wr17x+fLl6nLkfxX08U1R5rTo/Lnlf7vkfEd8XunZj8Vh7+S/q3HvyqMz6ztVS86Vh5rxT5+5f1Ln7pDp3rft+6jy9Vp2nl5wvIy50fa6PqM/1S+pzXRvwmRupzvf/bs53q0xzvuvnmes639VzrPxXdb4fNveNypHqPPqv6jyKU17O66uTyurpsvCqKWp7e7UuZ70qZ02mHHUuq2OwQB2DWI6o7+SoYxyLOsd/lj3Ho9SuWSk/bU9VZob3913fH1jzTRl8jYor7AdYA5u0qr95fgsrFknJshulSP3N3s4vT7xhxI4LfOJvlyR+af/ve87+qZik+Huu51TltkbFTc7vYQGdu2fdsVSWXm7uJPgt7GuouQikP/y/lRIVFGcTC61cBl6zREqWLwroiFwvn27U30bVMrjGV9mmvyisxEJ94P0BdcV0OUeV0SYjZYg6iUpuyZ6YWlFZtRQve1iG5LkiWVSuT6oGacvzBRLcaUuVH6v/g/pi1Pu4bInVKdt9DIom3yglq3L3M1F5FSPV647zxaN0p6ZSFw23gtu7VQC81B2wW47JgbAvooK2049bKg/pjsOeQ6QClcvnyUP3L5a7Z+S5qpJ0PwuiApk7VOB1v/oxdwX62ojysbLg1pt9wwLWyY63zaIyYso49WnzGTNOrsi85mPy5hvuIKfQ8tIza6oOrPz7k2vi0CHWv/UNh4MTBO0TFUjrf8uznaZvGGm/6FjbqYB8nLXC6+KJV8nauVO9/TXU8pVT58g700eZFenQTbjeUWV9x5VYaJW66dbcGlk/qdis8VEJyaMqqVmrkqRsYqGp5ymfKmu/fpX8yLdprMQiRbO+o86va6u8n00VgI82izqovvsf58vikWaF35eq5ZGfqfMuk1hoavlL6txV23mHL1afaVXeWv14nRC4An1txIXqc71Yfa7zdYC+QJ3vKlm4+x/N85jVNnW+exILu8yH/rs6j5KUd8EXVNKgtl/sSiw0ve1/X+w9LhfETCx6Muf3vVH9MOs4YNUKKXYlFlrR5CVS7I8ZRtiDnVjbBYrXlChuXOAXe7sk8UsKv+/u/bM6g6uYxJOs6H2I2vcP9subjerfy7/AkOEdhOQih0osVukPqq6lWCUtK5wOTuq2YpXdyansRhk8zX60x47fWX8vuuabVjWfTT2fvgKhM/DlAVcYzJeIDs4HTxY5tXqZtLjKO2V1fi6XwdfP1AshZso5alvZ9UbeK/jeTlvqttq+PNPWmO+akH2FQg8hK7oGx72fS5ZJ6wu16ktA7ef3vIlXovIOrnU9tzoGep2u6XA/j3OLWdtSkPIp8lBmhKTsLW9VqApib79NB7fmvtuHR8OvusXeTl+5D3lcxjCpvjVPZ7Wk+1mAWXeoQOby6OBBJ0N3u6qlt+x83ywpah//3vcaKr/iCozervVcNUpSXjpKZeRF+t+P5XCepGzceXYk/MHxiEv3rZ+I/TRD5AtWIF0sX7BzkjzbOR2une3cVBKhAv36xjq572XTV+P3m+W+faaHtgrcH/VcFMj2r3DfFjmPj1IxTdZaTbjsWpFM3xC9/c5G67NVOX5qTpKgm349aiU/avF4ozy5c7OrbL2vetuhcvF59qMtB3e4HmOahumam8w61y2lWosDTR9L+VyVCOhRjf5xsdx+if7MnS81almPdGQF1WqNryLAxZ1U+KgAvOZa93eMTlbzB+A6Mbk76nK8et7b/6tOFsx9t4+85/us79iJT5TI8nQSEbr9MFnwn7tyJKg6+emPV8qiGLd0ai0U8/suX/6hXROhLzCuWGZ+v9Tv5i7rUSpY9l6Vcy7Khf5O6gBd/xuZXMSPC7wK2C5J/NLu3/dK+6Kvfu3T7pKSa8yw9plYTR3X1b/Ls+/N8qe3jql/z5eRMTt2b1n3ltTqhETJ17cOJBc5Bi5RiYVOBFboDsdbvZn7wa3y6RMbrA97UXnOdVXFX3uhA3L9fI1yYkVw1WXmyr51cqkyd9RnTyZVXqspT6KGbTVfNOFXOcLZ5TfK6Qb7fpiimh/KYOuEDthP9bpPrXtYndyr1P5GB/txy8uI9SXaXajAwQrYj0nt40+5+m2o5XVRVa8xt5txhXdehrc3ZR57z+PvS/aQ5uuslnQ/YxozXWoy1cfiK8PeV0f19a793PZXdeY5hskVX3EHWqXy91OyQUvtTtd+Ji0vFcNllD6WjcfkgL0ihJMkHJe/fWKtCKH+HhjD59sumtWUaftuV5OkVnlu90uZhOHKkWnUXhTLj8bbH1C7b4i3GdMelQwsUAmGTnbmjPRmFxMnjZcr9YLVrGuH/NzTVEvvq9r25c1ye+Ffcamq/+NGufOfNsn6v6jA5EJ1HlkBu/5XfTZ10581T8mi/5HbzMjrmP04Hcj+01uu81bFanOv8FxJ3fLv+u/qPH1Znev/pB7vBMBqH9zxb/XkqKDd2U/1PKrce5zn+LFa/nfXeTRSnUdfMsuK97HqPFrjOo+uij6P9LZB+2nVolgLzbLmf2T3Y/0Ra6VNN61ylWvd2t0kqms4v+/WlfoXVFKhLzAedF6J+t38g/l997GvzEf8Tuat2VCSxgUFbNfu+CXR77uptZErpPiWEXZCo5uVZXZXHVe1H/EMk1Fxv/o+2C4/NYOA0PcyP5ILD5Oxq+SgeNlvpWxVwM2qhYjgqr0YskS3idSJRXi7RedL5ERYUH4wxkmX+aIp9OvXGQLuzTx9OmbK4Gv0fgY063JTXybRzxO3PBfz2npOR/X3ZeVP1shPtzW7fgzVct6rHPm3s5vfONTjf5Fto12/baOsczUrCrry75V0P/Pz1DAo1bfe7KkJ0k26MsqzTUoyHe0MT9MoT5Oo92XHNrOoJC+vrzgumw8H13rsOWzXJsiQ89o/0pQzF4ZKEFaFnd/q+0zXMFSq8zpbXrFcM8Ku7XjyzZA+JVprRM1NZzpcJ2ueXCOLXMG2DojvUUlFYP8Hn9o1a7KPO7xdHn05+5m3rqS6mw6pv9/5Y3WeviMy+rL5cvc/LpZH/lF9rnWzJfMQSyZoD6PO939Sz6PK9ZzvriSo8jLfebRYnUfO3BNWrYzrPHI1BfNrePkpqxyLOlY7/mIvWiK2643s33dzRT9idERvIO9cmQ//nRw4xX73I3/zk8YFBWzX7vglye+7k5CohK1ttZ3QJFHf8LFZQkcguXAzoxa0j6v2wqomjOoQZb5E4rRtjGB/0SSZ7CbmEHDOyVxw9apf4UPO2a+tgJqONISMFhXnakXt47mdr+PIv53T/MYIuFLuaVaUR9L9jGP0iPxNObK81dL1b7hqYFwJkrdJ1F8980i0p7zO0yp//VT/62vakyNs1KN827VTSF+Ngpxn+lgMrZK1mUn+/Lepdg2Fh/OaP5W/dpP8Ib9SWXyVDrbfl/U6OfhStfx9WD+LPOqb3EHOMBnlPs+tvhJ2MqH7S+h+EHYtRGFq1+SrTSl0xCZfEuTS2OT9njzQ5E6e+hLn913/NgcHwEXVV+QG8qYfQ/jvpPO80b+LSeOC+Nu1P35J9PvuJD8vLOsVM4f3ViQXLk4Vn57uPqftn+8WfhWiUobM1ydMHCbYjgra81YbOlc54gfsGXGHgMtcyWhHBqQVPORcOskXujNfXwWno53FaRoV0SSqYPn7RnSU/Z/YTZDGDM3pcJBVfJ7YuY8TaDtJSb7tnBm0e1KA3nNVXnu1LLjwmKz/p42y5o8vyvojw2TBf02jyd0xOfShWdSDN1gdq83dbkWdR3mSle5HHU9XTUzULbIPS2z5L6YFNn/K+3vrPG9UC4CkcUEh27U3fkn2++4kJJ/XJquxcFSOYBjpjkRyESC4P0U8A52mUKvtjkoD5weNLGWYYDsqaB94vd0MKzwgL7w2wFFw/4d2Kry8GF9efUazHM4EHUpA8x5vs6muc6DBfaXyfVkZUAuUvW30zWbtdLSzjRgxPLJJlNa+8trrqBzSyVCM5lZ7jttZgrdJkNfEkeV2gNqYnQX7ucN2thVru+PHZb+1JiantqHQ7YI4I1bpYV+DOlW7b4FD6gZ1Ri9QGjUw+YycLrfPHSYNL79ohlbV/Qc2Se2FU+R2T4fseGZNDj5vK6+t9jR9anh5k6z8p2w/iJXu5kYp8NYwqPPI3ech55b2eeSSt4lXD+G0hAj9bQ4Orp2LnGHNkoryPq+WNC4oYLt2xy9Jft/TvuCoknnmBO0QJBcubY121Fv05emhCUHRNPXhNst+A5f8VoqdplA7tsqJF1RQEDaylJLvS0TPEaGfL7KKMsYJHsa+ahLjJG2wv2i8o2D5VMwMT6KM2OU5nKsesHibPY2VpXdkh8TU8164OzXr+Sr+1EVX6D1Nm/R+PjhfZo3xds6unDFd7l4Y3Am1/ula9Yk39FCBo4ZlmkQ1PP9mTlDT3vKCjLjuCvUc5o7ePrQplZP0xWhuZfobhE9255os77DrF6+Q7fYFBe1hTaqyHbAjh7mNyxmxqnx8wGhQUQ7Ji1b+NFS+c0XELOPFxTH6haSQoORRedEwq4/FnX90N/+pk5/qPhhlAUMo+1RfpT6fpklRZbU6b12dqHWn8D8F1Qio9ev+WCdbDus+E+rzWO3tfJ2G+nd855EeGnek7zzSQ+1em/aIT+oc+sgsaipJW1jtK9ezH0l17mhRmZYQBV4YDKzNMKz5Hcy8UZG/+UnjggK2a3f8kuj3PWnS5OfUhhdSk62Hb19qjxzZQcOa9yYkF247TAatEgI9l8VA1w+5njjOHsd5RWCyoE96fSK52wG2rVsXWXthf4mov9/yWympcQfn9nwSzuRzp1YHjzTlphOizP5WqO1VEhTNuQLgnZejaNpMz+u2HNwun1tDylVL8fK71N9dz63L0vu6LGCsbo8CyvObXCNDXK/Hfi/U+2Pupy5kKFrr9mDaow0VYNubsj7TZEjR81qY/bLmvTCrrdFoHuuI0VWGyYL7fccjc3ON0f/B9pzO5Uvvv9n12JvV/k6R6uuqQ4bMdc95obbNdMgOmUui3eVp3nk2rHIzr/Vmud0zcpWXnfT5R7cKckhWOaMzTb1KHp3kCpatOR5Mf4ScDtGH5HZrlKVCt8u6cqqeX2KUZ7vsRHmN8i/5JsWLpVV+vk/vp0oS5ur9VOV5Av1iuWHSNFn/9WmZOTwcz+0xgxPo/hrzpsmPKtwb6on11HZz58ja0Dk5vAnKDZ7NVbme52uf+tqNcqc1KZ2PtT7GeXeh+mz9d/W5+pndSTp73qqneCm7vacvht4m02xHfZ4Xmwny0nRYnUeeztd6P9V55Cu3eq46jxL2LwmzZZe3v5juTO4p97/mT9q6m6gkweIE8oFzPtnDt2ZiAj1JnJ5765pyObXL/i6I1eG64LjAFme71OKXQn7f8zYTj8mpDff134tSuVBPzmovj7g86rcEGsmFx1ZpNfMw6ATDPWKUM3GcHk/5hC8L1zN565Ne9FjLnr4Y2dqL3MDbBNtNjdJmjS61REoyo1I580l4k5VAroQos7/L1Pbzw2tfbPVy6s/2l1TRNSuyr/OWJXJOzq9WfWYIXrEmxck+3irLOi4bpDViNIzCyjMySY36olVJXWYb6724Uc4JqRHqvZplzb2bMmNtB9PDy3b9GNxbfvGUrHw7X0fO8IA8sHN6RG1Me8vTtvzCN2ymS+Ckfg4zhG7kY4w9u1+S+xp1gjFUrhyvgmWno7Nrjof7gpoMHdyRbDvLcalXm+r5Jdzb2YmFnr17R6YJVrup/bSHt9X7qcqba8qzbnPkAT2jtvpzTu1C625Z8LKTYJTLd/Tkfq7trIn19L7uCW/D4E5Q9GR9me1VUvLA1Ak5CU13Y4+yZO5otW96h2j1UOe5Hg43ZVueVOdR3udV59FladQkuES+VqXHjTKVv/lO2JX/U2+ZD8FkV0xgTRKnR578lpywvv/zNC9OGhfE3i6F+CXJ73tK/T+dAUKS99+LczGpbyO58NvxsJn8xRvBWcGzOrGt8ZTNOs1KLKzZtzdYf/Nzai9ymxQ51XvrpGW5OgF3qZPU/oMlU15kwK6phGjFBjNZjc2acn9j/hm329b9s1Vulj1xoD95slgT3+Tup551/IQ1znT0/BZaQeVZVFKjjs0Jzzb269PHpm+OFFFnjbVtzWvhOSzHpEHPe2GGl+16zSpYX6P2Z5OsV0G/53ewUQVGz+t9jRiByzPnha3hrf128BioneVZ1LE127s16O3fOmruBTFD6JZPkdvzTbSoPLf9JXtCOR2DZ6gEoHGnNcdDWKBvb1cnrx53b2gmq4vYTice92wyk9i5NrUn1XtJfp5yB3CdQF328k55UiVDnvdL7bezr4Fl6gTDmTAv6Nj8Ps++WgnKTt/xUa/TmpRvb3oJVLvoTuBP2fNkOMz8GN5mVpruy+EP9tVnWw97q4eV/Xd3M6a0qPPoSXUembk8PM9/RJ0HZr6N3H1tL/u16rk0GnxJRoNV7l/zzCPT3eRvvhNas6FikKDfST2PhB550t4uX/PipHFB3O3SiF8K/33P2xQrlipZeN0wdVjfkqd9/feiWM11vbuKCP1mz5131iyn4mhL7pfO6NGVcuBAez4MvVDFImvGTj2xTv4EAkD3pmdPv1kWlKvgUSV4cWuOJk66yp7RWneCTmkW6Y7i7Ks1IV8qzaj6iOr5sjYzR4ROLtTno8eNtAS49OD4ZdYdS2Xp5YV9T3vMUOfzrWOl4fmnmEwvAjUXXSRwfGsAPVSzrHlMz6as+6W4+p/ksWf3PruzdvlUWT/d1SeiGxp3ntWOCu3im8cC6IF6avxSuXCxSixEJQbJmw7bQ9iG9P9DBslFF8nb2QtAz/LBdrlTN1dzRqwyq6PZnbX1T3SlSjCyk89dVeCISynSnb0rvCMz6Q7VD1jNqMNn+wbQN/TE+EUnFg/p5lBvb0pe4zBmutxuPUdtl/dr7O5ILrpE/s5eAHqgbRvlzp/oGgwl7mgiB3dYfQV0H4XuYOLI8VaHavcs27pDtVbfuC/1PhoAepKeG7/ofomLfpGkE3epSk7myyP3T5ERje/LykTP0beQXHSJtMZqBtDt6BqMezfKlkKubLUekp9vf8k10Vz6Ha3j2nN4pzUylafBg+6MvXOzLOjm/UIAdLSeGb/UP71G7kycFAyXhdeNtWo97tHf7WYtwtGhGwAAAEAqqLkAAAAAkAqSCwAAAACpILkAAAAAkAqSCwAAAACpILkAAAAAkAqSCwAAAACpILkAAAAAkAqSCwDow8ounSffX7JILjH3AQBoDybR61ST5ab7viFVLa/JE6s2SZNZm1/S7bqJSxfJsgUTzJ2suvXL5Zl3zZ0YLrn5B3JjVam01D0rv3pql1nbcTq7PCBSSueRW9mcH8j3ZpSKqO+WDc9ukvdyvlwuUufBTTLjo2fkV5s/NOsAAAg3oHLsxcvNcipOnvzMLGUVF58vra0fm3t9V9mchXL16M/k9X9dK385YVbGkHS77qLsS7NlyuhB5p5jr2x75j05Yu7lVTZPvv6fJ4h+lkHSInU7/yYdeigSlqeDtTv+28VybEsBry0Bu5xrZeas2RG3S2TAvjekvgd+ZtrDOTZlx16R3R35JnSyVM4jl0tuXi6LL1efbpU8r/l//yTvB35OPpULv3StXH751F53PAEAHYNmUZ1FBas1+gph3RZ5pZCqh6TbdSNNm38pKx5Ybm6PyestamVLs3xk/zmepvdkn95OmqVu73sdX3uTqLyLZOIEfRW4wNeWwAUXqHLyapbmHvqZSc68B/q197JAOJXzyNCJxY1VavNtj1m1clEfk/eessuqWkDTKQBAftRcdJJLrvu2XF6yVzaseqmgq4xJt+u+Lpap/2WilBzaKf/2l0Ii30+lfucrsnXLG7K7/lOzriMlKS/payvURTJp1lSpGKQ+Fw/8Un63Re9n0K1ja0+6J/MetLwl//5KB9dudanknzVds2PVWOjEIlZTJ3UufH6RzJwwQUoH7JXaTjn/AAA9FTUXneHSReYq4SvynlkVS9LturNLJ4l6SVK3pxf2Yeis11Z2iYwvUf/W7e49n4u0lF0o+tBIy5Ge1zepEEk/a05NaMtrsq6QPhTvvmLVXpRMuETKzKpYVHnfv2+5LLvvBzK7oA0BAD0VHbo73EUye8lt8lUptDN2/O3KVBJS87UJUmJFVVqz1G3bIls3BzV3MM+ra0MeWJsbnDqdRnM6j5vtWp6VFU/tskaYmfm1r0mVKbOlZa9se1Y9X54XaHcgFXn98V9GN/MK6byau1/hysomy8QrZ8n4qlI74FRa6lRQ9VTA9onKmyw3LZmljkGcJkohxzsJs6/xrzxn5Rx/dYxu+obrNaj3cUPA+5h0Oym7SC658iaZ4XoP9GNff+0VeeXd8H1PXF57jo3aNt55lOcccujA+tavSUmdfc74FXbeesU+j3zs5lDNBW+nFV6mGYjC3EvyngAAeh5qLjrapbNVECJS91q8gDgj1nY6uF0u31PBVDZA0UqlasY35HtL5gVcZfxQXnltr/p3gsyYc5G9yqGDIR1g68DNH1Cbq+UtcqHMvlkFGQuyiYVWUjJBbrw1/9VJu69A/r4AZaXBAXtLrP4PeoQbtY+3fkO+6g5qlZKqr8n3Aq6iJipPXyWPlVgoKfbDsPe1WfbtLjxQcx9/HSwuU8fIkxzpgxXwgpNsp4Pn7996mzXilvs9EPVZ+eqC2+T7/s+fS9L9dN7HluZCjk2h59GHsmevvohSKqWhn3eVgHxDJRbqNbz+qj+xSHLeesU9jzzU+T3Dqu5I1n+rqdm85gvt+3k5tUgAgD6FmosOZa7cFXC13RZnO/MYFWBYVzt375Im54Flk1VgowJr9csePExl0JVX5/lCrsaaK8I2Veb6Z2Trux/a+2ZdVdbBn1oOuUprM2VEPiaEKT//sJvOa9PLvv3UScec2TJjhgrq8r0nsctzxHnP0uF0xg0TfoXYHBtdG/ZaqRXc6pGC1qng1/7sqONzqch7OTUKCbZzfV6sx2Y6DV+kkoXZ8j31Huj3J/gqeDv3M1+NgkfC88i8vtBjHfr3hOV5JDuPktZ2ZJiaGCmgBsI9nHP2MwAA6M2ouehAZXNmWUHE688WFmzG2e6Sm3WAooIoFSg8o5tRuB/YtEteefY10YPJlJQGXR32117ooMwOeF5/PDgoy1zZ18HzA6rMTMCuqPKeMeVJyYXhV13NlcyWjwrvZuxcrW/Os2nZnJvsxCJoP9Xrfm/zWvnV489aY/pHvSdxy8votLb+F0mpVVASF5ptJ0jNglIVwKogUQd8mR1WxycnYNcK3U4Fvyax0EGydzQi9X6o9+CJbfZV8PGTgj6f7dzPAmqJEp9HR5rt9RcEXcZX59PXdA1gbr+G9p23RqLzyBnJbK/scZfZwd57yh7hKt+IVACA3oPkoqOUdeTQs5NlgnXlWjdF0p0lA266rbf12BBOB80Zs2X2zfpqb9hVZJvTDCM04Wk6YicXUS60m8cU1mRFixsYTZaZ+tjp4C2q9kAFcdF9QxIEYua1dXxHdRNA66vWmWFJvbfQq8pOAlRSKi3r7cQrlgK3s5Njdfi2PRZ69b1p997w4Ly9+xk7wWvHeeQMVRyQTDsJbm6TxhTOWy3ReeQkXr28ozsAoMuRXHSQS67UQYIKcp8qLNiMtZ0ZKaZ9srUXX1VPVqeCuPBkxrlaXmAbb59LJuqr2Xtlb6xmRm4xAyMnuGz3KEqFB2L2ayugpiMp894nqf3JBKURQX+gArdzEtEkfUIs7d3PuMemXefRh9JsVzHIBfYKwyS4KvnL2fdUztuE55E5NxJ9bgAAKADJRUe4tGOHnnWaKOkmJ0FXrt238LbRpulGLM7V8oigPe9VY5OgJOnYHHfYzUKDyzBxy8tIJ/mKI1mHZZuTABUa9Be2XcxjEfFeJd3PQo9Ne8+jjz7STbsmyIRL7fua3eypOaATd3rnbeLzSEnyuclw3rP2PAcAoNcjuUhdeHvraIVvF9kuO49LnKZQ65+VOnW/6msRI9TEuFpu17hEBeTJm2XYQVkn1AoYhZcXI/lKSWaUoIKPRdIEqCMSp2ximxuoJi/PPjaF14wlPY/s0ZNc25vRmFq2PRPZFLI9523i88gkBu2RqMYEANDnkFykLLy9dbRCtssENRETWpVdelHo35zRhqymUO/ukq26c23J12Sm6wqsW94rwqbGJTLwiJGghIk97KbTyXbGbLnEXpOrbHJ4EmXELs/h1Np0OOeqdZJOuU5QWugV70K3M82FfFf03dyd7rfmfF6S7qfpz1DAdu09j+Td3VZibvcbUQmTNfTsXtkWcnGg3eVpSc8j59xInNgUenzV8bj5B1Y/ku/fPNmsAwD0BSQXqYpobx2pwO1MUKMTAj0m/iWuaERPHGfPQ3FbYLKgh6O0m15l27M3bd4SWXthB9vq7wtUoDDHHZzb80k4Q47Wrc8//KcOrDL7qydYU8FUNOdKtndejrJLJ3tet8XpZKs7zC5ZpP7uem5dlt7XW78hNRHzKxRUnl/VLJntej32e6HeH3O//RJetdYK7uxsJNjuvT26L4/+vPxAbnK/v85n0+p0HzI4QCfuZ3vOI9sR0+/iQvX5MPPSRJ0D7S4vq/DzqJ2cpoIxL5pYCWSV/b1Ros+LfOcOAKDXYJ6LFOnAPck48om2M+PohwkaV15PaqbnDAiai8Leh1Ir6fC2977IzDmgr3yW+ib9ysrdzs8Z399HDxmbZ14IZ9/8AucCMGPxh+ymOi4hM3S7FFSexRyjkELDtytQnvfcEfhemG3zv08+CbeLnosjYmSydu5nPjnvRZ7t8s3P4Mx43dKimx3l/yy3t7zk55FzHsfYxxymzBjnqsN7DkW83wCAXoeai7R06NCzAd5dKysef1bqfMmcDp43PJ47rnwmsdABgi+x0Jzai9wmRc7V8i3yq1WPyYY6u3mFI1Ne3kBwlzzz+Gtqf81dpaVlr7z+Wv4Zt5s2P2OVm6UnIHs2oEmN0rRJfvVA7n7qpkSvW/Ml5A+OCirP8qG8oo7N655t7Nenj00qiYXiNE9LIm/TthBJt3vvqeXyxPq96hiYFZr6rOrjqOcfCfust3c/ozXn9lUp8Dzys2tpdNIdUhPj187ykp9HzuhWE2RigbUIztDChTT1dIYatqXZXwcA0N1Rc5ES+wqmCiZjzwxsS7pdpzE1AYXMygugG3Jq9QJqLkM5NS2FbJPRntoSAEBPRc1FGtQPcJwhZHMk3a4TlU2aYDUxKvRKMoBupmmTbLM6V8XrA6FrO63EIqS2My+nH0qBg1sAAHo2kot2u6jThp7tCsmHPgXQ3bz36mtW36mv3roocqABq8+Ek1gkqXXQtSSmxiOtZoEAgJ6B5KKdOmPo2a7TEXMcAOgyuk+S1RemWX0JmXUeuinTcntwB5UYFJ5YXCSXzFlkN6VM1JQKANDT0ecCEQofJQZAz1amkoOZza/IM+8WXqOqh3ueUdIs255dK+/xhQEAfRLJBQAAAIBU0CwKAAAAQCpILgAAAACkguQCAAAAQCpILgAAAACkguQCAAAAQCpILgAAAACkguQCAAAAQCpILgAAAACkguQCAAAAQCpILgAAAACkguQCAAAAQCpILgAAAACkguQCAAAAQCpILgAAAACkguQCAAAAQCpILgAAAACkguQCAAAAQCpILgAAAACkguQCAAAAQCpILgAAAACkguQCAAAAQCpILgAAAACkguQCAAAAQCpILgAAAACkguQCAAAAQCpILgAAAACkguQCAAAAQCpILgAAAACkguQCAAAAQCpILgAAAACkguQCAAAAQCpILgAAAACkguQCAAAAQCpILgAAAACkguQCAAAAQCpILgAAAACkguQCAAAAQCpILgAAAACkguQCAAAAQCr6zZ4776xZTsXRlmazlDV6dKUcOFBv7gHoPMXyo3lz5DtDzV2f+n2bZcHuVnOvOyqVWQuvkJopY2VEuVkl78vKWzbKFnMPAAB0HyQX6EDRga1b9w9y0zFx0lWydrxzQI7Lky+/JD8PeNk3TK+RB5xg+nidLNq0W/aYu4Xp2cnFrDuWytLLzZ0MkgsAALormkUBnWjP4UbJptlDZc7IYrPsNkquzlylVz79JGFi0dOVysiL7KXax5+SRbesNDcSCwAAuiuSC6AztR6WzcfNslJ5XkCVQvF5MsYsaq8ePmSWkmiVn29aJ5f93rntlFfNX3qMxrfk6W25NaIAAKD7IblA59HNezJBrvfWF5pE2Vrlr5+aRa18pNxgFjNUwlFpFlVkLS8eNIsAAADdHH0uOkDRtLukeH61FJWZFSpAPPXCOjmxbqu0mTVZlTJk+QoZ3LRKmlZtte4PrPmmDL5GbW8/QNp2rZJW9TfPthWLpGTZjVKk/mZv52eet6xWWpc8LKfc63RZfxAZcn2NDJ5cLtJUKyeeeFg+lZm569oV2Pra+xfSd6B4kqyfW2UH2Y075bLt+up9sdwwaYL8w/hye712vFHue3OHPOfkJkm3MyZWTJOH9OMyFQrHpb5xn9yz55DsCcp/kpSnynhnaqZDRU6/C09/i8xzupnnHzFE7We25qNelbF53175+cGgHXWMkke/PlWuNPei+lx4+4eo/f+92n9zz/88wfupnqN4lCy5YrxcWfB+2qw+Fxe9Jffcu93VnAwAAHRX/SdfeqmE3QYPHmwehnhmSvHy30rJLe7EQiuXgdcskZLlizIJQ0bFdDlHPbatUUXxOmFYtUKKXYmFVjR5iRTXZMJU24iR1mOs7QJVyAC9D02HXUmJWSdfkeJlS+wkQiurlnOuv0slK951g6+faS93tSHnWUHqoypRecAdsFuOy/6wGLWg7fTjamStCvqziYU2VCrLp8rauVfJoxVB/SNc4pZ38LCraZK/30WxfGGIWVTqP3G1odJJxfSr5J2vm+d3Bexa5dBy+c7UObJ++iizpivZ+7p2rkpA2ruf5cNktFkEAADdm9Us6tJLv5Rz006cOGH9izhUYrFqiQws07UUq6RlxbekaYm5rVglJ5rUQ8pulMHT7EdnmCRBvvxDuyaiqVZaVywz2y6T1l3Wo6SovMJeMIrKR1j/tjWGXM+tMM/rTi6cdZOrZeAutY+6jNW11p+K1DpdC+Jel7qhVbL26zUqOPbe1k/KE7SrYPShK3SQau67RXV2jr2drmEJeVzGULly6lT5UdSuxi7vkLzYaBYVT7+L4pEyJ3P3uGw+7M6A9HLkTlp0MvSo9+PS6W6YrhKg8uh97Q77CQAA0tV/17vvyrvv/sXcten7ej3iG7hEJRaiE4O7pFU3f3JXKBzcKp8+scEK8ovKvdeznSShqKxc5AWVVCx/WE4ddBKGejn1B3s7v6JyXcPQKKcb7Ps5gmo2nESmaYO0OM2sGkzy4V5nhNeKdLahpjbhuLy6c7Or34Za3pPbFCcr5nYVE7xDtTbuzDx20U7v6E7fuWKSTDT3csXfz/3uGgl3vwt3f4vjjfKCr1bmuT11an/U8+9T+/iy8/zq9rK3o/aVI7uw9qJ4kvyD06xL8R4L+5g6rhwfdjxLpXLhfKnRw9A2HpMD9koAANDNWTUX7gSDxCKJmXLOZP1vtRQv+62UrQq46VoJ67FedpIgcmr1MmlZF96q3BvoV9rNrpreVImIvcZv4JRq6193zYaTyJzauDabRJiEw70ub61Il2iU+15+SW4/2OqqAVDLvuA7V/7tbhjpioT147cfyjx2z8Ed8i+uWgZdO3FNZEVLvP30Dkk7RL5gntO9L/Uq8cs+h9G6Wxb8Xj3/YZFxI6fJo/OukvXzauQd3fzIPMSim2iZxc42Ub0Gdwp95dQ5nhor3fQsY+hQGWcWLWOmyyOrl8ra1TfLQ9eNlRGN78v6x+hvAQBAT5EZLUonFJteepnEIolpX5GBZrEwJkmQWvl8R3D4VFR9hamBcP3d9NPw9qdwc57XW7MRVNthJyFBj9P7ZN9PTchoUXFGinp1Z27n6zjyb+ft4yDHj8t+s+h4TiUCccXeT8+QtE6/C+++fHA84ImsPh12MqH7Xej+DN4+Il1vXNDwuqGyiVUQ/bFUeRQAAOghPEPRNjUdMUsoRKZGYLXpYxFx89ZOBHW69gps/hS7M7e7ZsOpXWlwNdlykhD3OvO4iH1CGlrlhYZs0yi738VQuTgTlwcNQasSC6uDtLnbK3wqf3XnUB9slzutifKekpXPH5MR5WNl6W3TPTUhAACg+2KeixT5+1Pk5dR45K2BcAf/2WQmrNlSUdDzOp25d71hhqXVTBLiXhfUEbxX88074W+mo3ibTaXH0zRKN2NSxz47tOth17CvtomTxnuaPtXv2yn3vZztz3Bf/AqW9vNN9Ofm6U+ikqT7XLVUuTf38LZuzbLl6TWy8m21yGhRAAD0GCQXKWhrtKsVir483Q7MAxRNU4mCWXZkajzeCpqnQguu2YjqzF1U87A1FK4W1Jnbs84kIXkf18t5mz2VywPTR2X6K+h5L9ydk4M6WSfW+ol8YBZ1X44lI7NtovLOyq324192H5LnWnXfjmK1n95O1HFVjp8gN2SaJannCW2iVC7/4IzqpZtmOXN7BPD2J1HHc940VYb7ie39fXRSdxgyFwAApInkIg07zJX/shutuSwGuobXLKqYKUOW6IB/Rc4wtFFJgsUJ/v+8PaAWodyahyKTsKhyrDk2rimXU7vsYDmoM3eSdakJGYrWus2LGoWpgx3cK0+6L7breS3MflnzXpjVKqKXJ9+MOQlgLO4haYfKlZmhW4Nn5d5z3FXFopKRBzLHb47az/Bg38s7DK4V/M/NPs9DVt8PmzdJ0InIHPtx/s7jfq27czrBPzDXbOva3yvHj48e2hcAAPQ4JBep2CqtztwQKsFwjxjlTEynZ9k+4ekgHdzkyS0s0D/1lilr8hIpyYxGZc+xcWLFt+SEFdgFddLO13G7UgZ+2b+uL2iVn2/aKa+6E4wcenjZnZ6ZtNMQ2Fk8oFO5xZ8Eeaj9a4x8ARnPbfcOW+tWOWJkNsnzJwluxxvlyX3h5T23fbPcl3d//BMI+pXKyIvUPwxFCwBAj0FykZYdD1uT5Z1q8kZjbbs2SKsK+P1zSIQ1eXILrdlQZbWa2gmbmbhvyV3yqUpU7O3yddw26zzl59+n3uuQ3L7JzGvhiYmPS72e98IML5s6z2zdtsAhaC06CfIH7a792+OtaQinXuvLO+VJX/Bfr5KaVxs+MfdsOknwPs7MsbFph/zcXZOSo1Vt+5LaL7scz37pcsw8HXFGCgMAAD1Hv9lz5501y6k42tJslrJGj66UAwc6oJkNgF6sVBY/eLMskLfknnuZ6wIAgJ6AmgsA3Vv5FFk4o9TcAQAA3Rk1FwC6rcqFi+Wh64aZe473ZeUtG2WLuQcAALoPai4AdFv1T6+Re55/XxrCOpYDAIBuhZoLAAAAAKmg5gIAAABAKkguAAAAAKSC5CIFutkXAAAA0NeRXAAAAABIBckFAAAAgFSQXAAAAABIBckFAAAAgFSQXAAAAABIBckFAAAAgFSQXAAAAABIRb/Zc+edNcupONrSbJay9DwQBw7Um3u9T29/fY5BMwfI5Gn9zL0oZ+Xwb07LwSP2vdKaIhk3zl6Wo2dk16/PyGfmrvoIStWPB8hwa9m7nebZNsLJHaflna3ej/KgC/vJqOv7y/Dh2X0+uf+MHH79jDS7ynBElXXy6Fk5uf2MHNp91rXvmnv/lf2nZfs6135c2F8u+3Z/OdfcDdpPi+9x+ljs/9lp8Z9NcY9HVvaYJn3/HO06ngW+7wAAoGei5gIx9ZOSL8YJTBUViLdkAsV+cm4m8lZUYDrILFpUwJoNqFWw6gkwfdtGONniDtj7qcBWBdLfVsGrKxDWzh3XX8ap9VWTzIqM6LLOVc8z/Fr1nN/tH7n/fqVfdScM/v3M8j8uWPzjkZF5L5K+f1oKx7Og9x0AAPRUJBeILXZgq4LTzBVqFUQO92yn7rsD0VJXkOnezohX5lk5mbnE308qvjtAxo2LCqTtRKHU3HPEKmt4f/niTNdzu/dfcwfRF/aXkZ5ahrNydLdZdMt5nO3cC82CS5Lkwjmmid6/pMezne87AADomWgWlYK+0izKzdPEJqfJi8ukATL9Wm9g6m4a5H6enCZDnqZCwc2E/PxNf07uPy3/sc4OXgepfZns2pejf2yTOifY95XlaaajAuUqfdXe3HU3fcppauQ6Fk6zIN2kStd8hB2nbPMhVe4OkZHm+Tz7FyL2++ATd7vEx7M97zsAAOixqLlAIoNKXIFjxJXnQSVmQdcuHLWXzs2s8z6Pv8nQoPEFXt1WCcIXXYGwTgLeMYGw9tnu07J/v7mjDK9yPdZ3Jd3TLOjIWTm0Iyj4dTU12n9WrJfn1Fw4tRHquU6qx1mCXoOr1uLkjjPSYi/GFvd98Iu1XTuOZ3vedwAA0HORXCABFYi7mrycjIiI3UHk0f8wQeS4/qYJjft53E2bbIUGzp5kRD3fflO74PaZO5B1NWHKBsNKTlnh/RXCmho5fShOqtfsPCb3OPWTiutdtSVbVbmux5zrfv2BvO/D0bq4QXq89699xzP5+w4AAHoukgsk4g4Oj+4LC2rDg1irP4GvXX5UZ+6oBMbmSwD2n8nbhCrLu62nLLWPFTX9ZaRrXzJBvPqbE3x7rr5naiNUwqBfh7XS9xhtkut5C9pfw3P8CgvS879/7Tueyd93AADQk5FcoHAqKHbFhpHBYSbI1LUBzbqJkKaCT30Ju4DO3OdOGyDTf1zku7k6EfsC1rCr+J7aEJfQsr49QCUK7iD7dLZfgWv/deLgNP8Z/lV7vW7mJJny/J25VdIyPfu3w6/n7q+7GVEgX2fy2EF6nPcvreOZ4H0HAAA9F8kFChbdhMjFHcTqxx1RAXam/b0vKPU/j6tWIFRo2WFX8dVzuqNqZ/s4ZSm6M/MuV9MgT7+CTHkqKLeSEd3MyRdkm0WLr9Yi03k8E4gr7pGnAsR+H3wK367A49me9x0AAPRoJBcoWNy+EJ4g1qKCVCfI/GI/KXX9PefKuO+qfCB32XEer7iD4UxznXzbqnL2/6bN05lZcx+HkyqAdl6bRTcjcl/99xwnd62FMs5dUxJnvgtb3PfBL9Z27Tie7XrfAQBAj0ZygQJ5r1ZHBYee4NsEns3O44er58n8PffKeKl7JCc9VOrP2mS7/xbQwTjKoJnu5kDZvgaeYHj/afu5/+h6brVRbqCtayjMognQs52bTTMnV4Du6cfhrrWIEllz4X0fPM8fKf77l0/48Uz+vgMAgJ6N5AKF8bTFjwoO3UFsNvB0N/sJ79TrC5z/I8ZVeXdzIr19pjOGo5+M8gyr6jRFCunMvfuMPbSsRb3m8a5tNXdTKtfVfz2nhe5roZ/bnbRkO3P7ai3yCJpIzxF4fPOJ+/6143gmf98BAEBPR3KBwviay8TqzK1kHqebD1kLriA0oGmOZ1v/KEtBXO36teHT+0upE5irgLrqu65J8FTQ6+5AHVyWej7XHA66OY+nFiGgVuKzraflnV+7JooLukLvqbVQ+/EbX23Mz067kpoI7n4NSuwgPe77l9bxLPB996qSux9cKmtXL5VH7qgy6wAAQHdGcoFoF/aXy5z+APrmmXW5n4xz/e2yma6/hVzZ9wftFn+Q6d7WHZhHOisHt7uSkOH9Zdy3zb7p2bVdAe/RP3pn3w4rK9OUR1PPN2qSWVaCayXcvM2m7En5fLUW7o7cgdS+5dQY2DxNuaKC9KTvXxrHs9D33adyYbVUl9vLIy6vlsVj7GUAANB9kVwgWsyOvZo7yI6aXdsz8ZqS01+ggNoRD2vG6KBA36ECXBUIZ4aS1aLK8jSNUvG1ZwZqZ1k9p2eIWSMoyPb1tWhXfwdXv4bIID3h+2dJcDzb9b5HGiZXfCUk0wIAAN0GyQUi5Y78E8Z71T+oU6/js31OExlNBai+/gKeztx61CWzGEfzutOy64/q+d1ZgQpyj+5Q63+mA2FvWdE1AGfl0A7X44NmmA4L7F1Bvf36fbUWR8/IoaCkxCd4lm5X+UpUkJ70/XMUfjyTv+9+9U/XSm2juQMAAHqEfrPnzov+hS/Q0ZbcCGX06Eo5cKDe3Ot9evvrA7rUjPmy9tax0vD8U3Ln04WkmgAAoLNRcwGgW6sccb76/zF58w0SCwAAujuSCwDd15jpcvt1w0TerpU1H5h1AACg2yK5ANANlUrlwvnyyP1TZETj+7LyF3VmPQAA6M5ILgB0Q8Nl4XVjRd7eJPfcu1G2mLUAAKB7o0N3CujQDQAAAFBzAQAAACAlJBcAAAAAUkFyAQAAACAVJBcAAAAAUkFyAQAAACAVJBcAAAAAUkFyAQAAACAVJBcAAAAAUkFyAQAAACAVzNCdgl4/Q/eF/eWyb/eXc607Z2X/z05L7rtsGzRzgEye1s++s/+0bF/n+3h5nksLf77SmiIZN87c8Tl59Kyc3H5GDu0+K5+ZdQ7PdkfPyK5fn3E9pp9U/XiADLeWz8rh35yWg0esO959j+TdLml5Wf1k0KR+Mmp6Pxk+3Clfvb79Z+Q/1PHzvz4AAIDuipoLFEYF9VHB7qCSbHB+tC43by39qjuxiNJPzrUj8kDnqiB8+LUqGfhufxlk1tl826nHef5+ofq7WdROZgL9flLyxTiJhaKOQYtru2TlGSrZqvqueh3X9nclFprabpx+fQOk1KwBAADo7kgukF+pK0COTC5UwJ+paTgrR3ebRYcKpEcG1ESce6FZ8IlKLjKG95cvznQF5SqYH+7ZTt2fZBa1iNcSqzzNvV07ypNJA6xaHO/2PirhGFcTM+kBAADoYiQXKMjJFrMQZJIKlM2i7D+T09QpW2txVg7vcGo1VPAddGnec8VfNydqk+0/M7ffnJaj5i/auSVmQXMH88a5rtqUQa7HnvwPd7B/Vuqc51e3XZn9U3RTJ9ffPE29kpanm4dd632NR/94OlPOrj+ekZNq7cn9ap2/aRkAAEA3RXKBvNwBcoYOjr87wLo5uYH7cTlNoly1Fid3nJGoHMXiu+KfbYakHDkrh9zBv0t2H87KSZOBuJMPd7Otky3hQbv7cVG1NUnL8zYPs/ti1Ln6j3y2+4y8o9a9Q58LAADQg5BcoCBOgGwFx8NVAjBcBdNWsyZ3nwUVaHuqLfpJxfWuWoutKmB2ZRfuK/0OT0KTE9yH94/w9Pn4DxPMj+tvEiB7f23+fXRzP06/ZrMQIFF5vuZhOtnK7eStqCQKAACgJyG5QF7ZANoJkN19K7IygbS/pmGSCqadvwU0l8rlTR48wf2FKlGpcT2fkq0lCU8KrATI1z8ip3O1izspOLovLMhPVt6g8Wo7e1Gxky0AAIDegOQCBdEB8qCZrr4VDld/C29fBpUMTM8mJ4dfzw2kPX0mDHfQfu60ATL9x0X27dsDZOS4bOKhh7utc3Ucdyc4nzWrZMi6o4J5XZUQ1bnazd13RImVhBRQnqfJlTvZ0k3NnNfpulW5O4gDAAB0YyQXyEMFyO5IW923axXOytH99n0dSLv7Hniu9PtqLTLNfzKBuJJn+NYwOZ2d3UmBDuaPqH3J9INwBfRaRHIR3STLJVF53uPpqZUJ6Byuj2d48y0AAIDuheQC8ekA2UkWVKKQHbHJ14wpc6XfXWuhjHPXQETMdxEYZLuo/dj/m7aczs6epMCiAnMn2Ff7V+r6e9AcHA5PzUJEcpFWeY7c51NU+Z4mZgAAAN0YyQXycjf9GVRlB97+YDnzGHczH3etRRRfzYUnyNazfOvhWf/oKk89Z1Dy4U4KnBqBZmc/defzzN+jagO8NQtxk5Ck5bmbhH221bzW39jD0FoikhsAAIDuhuQCsZ1UHxd7lKOz3gnyVBDtBPvuztWeWos8shPphXTm3u2tKRk+3v/c7qTA1TTL1fwqVmduTyfsuElIIeWpv2dfiJWEeGcYV1w1N55mUwAAAN0cyQWiufs/qGDZWvaN+KSbANmPcSUdnloL3yR41s07EZ6bu+YgOzeEem6rj4dNl+kPyj3bOcH8ESfYdyUDUbUBviZZsTpzK4WUl6nd0Ib3l8k17tfiTcqi5uIQqZK7H1wqa1cvlUfuqDLrAAAAug7JBWLT81pouU2iTDCcSTp8tRbujtyBVCBuTwzh68ztrTnwB+Wj3KMoubfzBPPepMTi/rt/hKZr3TUi/WSc62+XzXT9LWl5mqcWRhk3QCZnyhngScqiOnNXLqyW6nJ7ecTl1bJ4jL0MAADQVUguEM3fufroGTnkbhLlkmnC4+trEaczc0ZUzYEvKB9u+n9onrkjfMH8Z76r/56mRvk6j7u4axESl2c5K3XufhUhTu4vpDP3MLniK06GBgAA0DVILlAQ7xwWbk6/A1+tRUQy4uZ0fo4eBvasHNrhCtwzM2EHd652fKb2KxvIO/tpCxyhKZC3FiFpeRlHzsg7Pzst+9Xr8fTB0OXsP2NGwzoTcqxt9U/XSm2juQMAANAN9Js9d15A5JPc0ZbcdhyjR1fKgQP15l7v09tfH7q5GfNl7a1jpeH5p+TOpyPaUQEAAHQwai6AHq5yxPnq/8fkzTdILAAAQNciuQB6sjHT5fbrhom8XStrPjDrAAAAugjJBdAjlUrlwvnyyP1TZETj+7LyF3VmPQAAQNchuQB6pOGy8LqxIm9vknvu3ShbzFoAAICuRIfuFNChGwAAAKDmAgAAAEBKSC4AAAAApILkAgAAAEAqSC4AAAAApILkAgAAAEAqSC4AAAAApILkAgAAAEAqSC4AAAAApILkAgAAAEAqmKE7BX1lhu7SmiIZN87cyTgrJ/eflcOvn5XmI2EfpX5S9eMBMtzcC6ee5zen5eARc3fSAJl+bT9zx+vkUVXu9jNyaPdZ+cyss/WTiu8OkJGmsKN/bJO63fayLd/ftX4yaFI/GTW9nwwf7pSvX+cZ+Y91/vIAAADgoOYCMfWTcwOzA7V+XH8Z9+0BclmNCsrNWo8L1WPMYj4nncRCGVRiFgKcq4L+4dcOkMnf7Z9TZnY/VULgz3XVvgyP/Ht/qVLJx+Rr+7sSC02/Tl3eACk1awAAAOBFcoHYgpOLLCv4VgmG36DxMZOLo95agUElwbUWHsP7yxdnuh43SSUFZlFzJyuWUu++eP4+SSVI39ZJhbkfRCUc4wJeIwAAAEQGVI69eLlZTsXJk7mNRoqLz5fW1o/Nvd6nt78+iwq8v/hFJ6g+K/t/dlrqXj8jR9XLPk+t/zvzFx1899t/Vj45Ye4rxVMGZAP2/adl+6/PyCG1bc7t7bPy/5mH6ZqCUdf3zyQCuvnSO+vtx/nLbDt8VpoO2MuDJvSXslFmP1Wy4n1O39/3n5G6vfairrG47KZsefo1Hv3jGfkPVeb7rjLb1P7vWed9TgAAANiouUAsniZKrhqGz3afkXd+c0ZOmvtW8yFPuyF131UTcLLFLOTjaUrlbb702W4V+B81d3w8tR2+mhDN/Xf3vpR+1ZtY6L4fda7+HPbrPC3v0OcCAAAgFMkFYokM2o+o4N8sauf6mjO5+0Ac3Rdz/AB38yWVSJxUScoglXDoW2lN/0yHbCsR2Oo8pzeROVrnL8uf6Ji/X6iez9VR/eSOM9lO5W6hHdYBAACgkVwghvy1DydDahK8NRD9ZOS3i2T6j323gE7ZnpoS3c/h2wNksrmNG2eSl6NnZNfPTou7T7Y7kYnbmdvbJ8SdrAAAAKAQJBeIJVHtgxKrM3ee5ktBTu4/Lbt+fca7XcLO3J6y9p/JJiu6H4Y/EVK3qknm7wAAAPAguUB++YJ2JbC5kZIvSdBya0K8NSVWLYNKQNyskal+PEAqLjQrlLB+IQ7P3zNJhLcsz774khFbQI0IAAAALCQXyCtf0B7e+doXuO84Ldt/1pZze8ffDMnXfEl3rn7n1862p+VwpglWPxn51WzyEtkvRHH/PU7Hcs/rdqjnbQnqjwEAAACSC+SXL2j3jrSkAndX8B1WoxEpai4KlWwc3O56nuHBE/cF1YYMd3faDtmXc10JxWdbTULjHg0rKLkCAACAheQCeUQ0G9Im6Q7WZlnRIy1l+yx4azSO7jaLeQQ3X8rKW5MSxNO0y70vusmVWdSCkhVXshOnxgMAAKCvIrlAXtnkwtWZWyUOpTUDZPq17j4VvpGWPMPJxr/iH958SQX+ejK/afmbN507rX+2P4ba1yr3fvoSlmb3kLXD+1uzjGcTjH5SMd1dXnCNh61K7n5wqaxdvVQeuaPKrAMAAOg7+s2eOy8qWirY0Zbc3q6jR1fKgQP15l7v06tfnx4x6dveZk/B7L4R7vkhSmuKPLUaofSQspmRn1Qw/90BrnksotgzhWc+cSrx8CY7QXzbWFTy8eMBnk7rwXJfo1vlwsXy0HXDzL1jsv4na2TNB+YuAABAH0DNBSLFHUo2N+j2NqeK5KvViLWdKdOTJOw+Lfv3m+VAZ+XoH/2JhXZW6jyzjAc7ub+QztzD5IqveKYqBwAA6PVILhApaihZPTzsYRWsb/918NX8uMmFp2mTb9hbL3tIWl3mrpAym9e1ya4/+vpR6O32n5H9KhmpC+v3ceSMvPMzlZzsCNu2Td5Z55tXw6f+6VqpbTR3AAAA+iCaRaWgt78+FGjGfFl761hpeP4pufPp3PMBAACgt6LmAkhZ5Yjz1f+PyZtvkFgAAIC+heQCSNOY6XK77tT9di2duQEAQJ9DcgGkolQqF86XR+6fIiMa35eVv6gz6wEAAPoOkgsgFcNl4XVjRd7eJPfcu1G2mLUAAAB9CR26U0CHbgAAAICaCwAAAAApIbkAAAAAkAqSCwAAAACpILkAAAAAkAqSCwAAAACpILkAAAAAkAqSCwAAAACpILkAAAAAkAqSCwAAAACpYIbuFPSNGbr7SdWPB8hwc0/2n5bt61wfnQv7y2Xf7i/nmrsnd5yWd7Y6f/dtG+qsHP7NaTl4xNy19JNBk/rLF6f3k3MzT3BWTu4/I/+hyv/MrMmVdDvD93r0tvt/dlpyP91uusx+MkqVOXx4P7Muqsz2HBcAAIDuh5oLxHOhCtLNYpDSr7oDcZVctLgTj+ht3U76EouK7w6Qyde6EwRN3R+n1qvAvOJCs8oj6XZZ/teTl0pGqqwy+7sSC82Uqf5WatZkJD4uAAAA3RPJBeIp9QXCKoAeZBZ1YD1ynFm2nJWju82iMmh8zCD6qPfqfmnNABkZeVm/n4z8dm6ikHS7jJzXYzs37PGTBli1HMOjylTHa1yNO+lIflwAAAC6K5pFpaAvNIsaNHOATJ7mCo6PnpFdvz5jBb2lNUUyTgXjJ1UQfK6+au/6m+b83eJvThUqtxnWLqdp0YXqb9erv6k/nlTr3/E8X9LtsrL7e1YO7xAZaV730T+2SZ0rabIENJ86+sczcmi3XabVNOtalcOr8vxNo5IdFwAAgO6LmgvE0E9KvmgSi/0qeNb/OjUXzlV+lVicVI+zeK609/M0TTrZYhby8TQZUkH+667nPHJW6n59Wvb/MSBBSLqdw1VrcXLHGcm3u97mU3bfiDqTWGif7T4j76h1ujx3YpH4uAAAAHRjJBeIxdt3IcsJrk/+h661sNf5A+Xstiox2Rfz6rxKBE6aRR2Ij7y+v5R6miWdlWYVxOdIup2ln1Sox9vJgkoUtqqEwPVazi1x1dxovuZTOhkJ7HSt9ilIouMCAADQjZFcID9XbYC3o7YTXKtAXF+Jt1b6H+OuSdB9HYpk+o99t+/2z/bfyFAB936zqA3vL+O+PUCqJvkC/BxJt1MmqdfjBPz7z+QZGcrfZ8JORmJLfFwAAAC6L5IL5OfqzK0Th5NWuygVt3/VXq+v2Evmqr4K7gvtzB3SYbl53Wk5asqy9ZPh1w5QQfcAX22EV7Lt+knF9Oxr0M2p/M4tMQvGIHdNhjsZ0f0w/ImCulVNMn9X2nNcAAAAuiuSC+Q1KBNUq8QiE0GrgH2cDq71FXtXEx9fQOwJwEOE9zcwfST2+wJ9PfJS1GhPSbbz1Vpkmjc1u5pZOf1MLCo5yDRr8r0G/8haFvexa+9xAQAA6J4GVI69eLlZTsXJk7nXWouLz5fW1o/Nvd6n17++KfYIS9qRF89I2xjXsKsqEK872k/GTu8nf6fvHz4j7++1/qL0k5Kv9pfzTKStJ9arXXtGDr3uvTUdsP8e5rO9Z+WQShQGVfSXczNRez85b7BanykrV/zt+knFDdn91E2pRqn9tm6XmdelnTwrTW+flf/PutNPii/PbtN2WP3NvI5BE/pL2Shf8qCSrvrXstumcVwAAAC6G2oukIeuoTCLplbis0yfCtN8yNNsyiwY3qv7uU2NYrNGemqT/e7+FOP6505M5xdnO3etRRRPzYWXu8nUZ1tPy/aftcn235zJ1nr4anRSOy4AAADdCMkFork7HrsCZD2nhTM6UrbZlC9Q9g0L6+6LEUltp2e7Dmq+1FznDcQ9E9sl2s7d1yK/7HbZvieWoMQjLOlKelwAAAC6OZILRAsIkPWV+Xd+rW5mdKRs/wFvvwJP3wPflftQujP0t3UzLHsWbT3KUyZoV0G5PxE46fSNSLqdp9birBz+TZtd65C5nbbn9QjgSViG95fJNd4+Ge4yPUlXkuMCAADQAzBDdwp68+tzz8wdOEO1CqIzM2JHzcwdxbOdCsq/OyBWMyXdV8FJcJJt59smcJZs1+tTvMfA+7dwOmk5nekknuy4AAAAdH/UXCCSu1YisPmOu4mP5yq8Wh8j0Ld4tjsrB3/tH0o2gEoE/sMzr0SC7Xx9LY76mk7ld1bq3P0qQpzcf1ZanJqSxMcFAACg+yO5QARXIBwW6MbszB0ld8hVeyjZXX/U/Rq8Ab++f/iPdg1D7v4Usp2vqdTRM3IoRt+HnFm6j5yRd352Wvbv8PXBUPtycv8Z2f+bNnlnnbf2IflxAQAA6N5oFpWC3v76AAAAgDiouQAAAACQCpILAAAAAKkguQAAAACQCpILAAAAAKkguQAAAACQCpILAAAAAKkguQAAAACQCpKLFDDHBQAAAEByAQAAACAlJBcAAAAAUkFyAQAAACAVJBcAAAAAUkFyAQAAACAV/WbPnXfWLKfiaEuzWcoaPbqy14+oNOuOpbL0cnNHjklD48ey7rGNsuUDswoAAADo5ai56BDDZET5WFl6/3yZZdYAAAAAvR01Fx1hTJUsvm2eLCg/Jut/skbWUHsBAACAPoCai47wQZ386a1j5g4AAADQN5BcdJD6ho/NUgHGTJe7H1wqa1cvlUcWlpqVAAAAQM9ActFBKkecb5bim1UzRarL7eUR110ti8fYywAAAEBPQHLRoT6Ww/S3AAAAQB9BctGNbFn3ltQ22ssNz79IR3AAAAD0KIwW1UEqFy6Wh64bJtL4lqx8bDvzXQAAAKDXG1A59uLlZjkVJ09+ZpayiovPl9bWBB2ce7CPd38oR8aMkJFfvFjmzrlCbqq5Qr76d+/LC7tzjw8AAADQG9AsqoONMP8CAAAAvR3JRUeZcYUsvVw3i3pfVv7kKVl0y0q58+ncJmMAAABAb0Fy0UHsoWiPyfrHNsqWD0gqAAAA0PuRXHSoQoeircpOondHlVkHAAAA9AwkFx3qfBlZwER4lQurs5PoXV7NJHoAAADoUUguuq1hcsVXSs0yAAAA0P2RXHSQ+obCh96tf7o2M4keAAAA0NOQXHQQu0N3oerkp/eulEWPv2/uAwAAAD0HyUVHGFMlC/Xs3Ak5I029+QajTAEAAKDnILlIyaw77FGerNv986Rar2x8X/5U0GhRypjpcrtOTN6ulTWFbgsAAAB0IZKLDnFMGt5+S1Y+tl3qzZr8SqVy4Xx55P4pMkJPvPeLOrMeAAAA6Bn6zZ4776xZTsXRltymPKNHV8qBA/HD7L6pSu5ePU/K394kj6rEgqMFAACAnobkAgAAAEAqaBYFAAAAIBUkFwAAAABSQXIBAAAAIBUkFwAAAABSQXIBAAAAIBUkFwAAAABSQXIBAAAAIBUkFwAAAABSQXIBAAAAIBUkFwAAAABSQXIBAAAAIBUkFwAAAABSQXIBAAAAIBUkFwAAAABSQXIBAAAAIBUkFwAAAABSQXIBAAAAIBUkFwAAAABSQXIBAAAAIBUkFwAAAABSQXIBAAAAIBUkFwAAAABSQXIBAAAAIBUkFwAAAABSQXIBAAAAIBUkFwAAAABSQXIBAAAAIBUkFwAAAABSQXIBAAAAIBUkFwAAAABSQXIBAAAAIBUkFwAAAABSQXIBAAAAIBUkFwAAAABSQXIBAAAAIBUkFwAAAABSQXIBAAAAIBUkFwAAAABSQXKBnmfMdHnkwfkyy9wF2qNy4WJ55I4qcw8AALQHyQV6lhnz5ZH7p8gIvTzGWoPupniSrP96jbzjv82bJBPNQ7qbEZfPk7UkGAAAtFu/2XPnnTXLqTja0myWskaPrpQDB+rNvd5tYsUkWTK+XK4cOtSsOS6v7tsnq3Yfkj1mTSoqpsk7U8vNnXD1+zbLgt2t5t4oefTrU+VKteRdnzVx0lWydvxQ7991sDi3SiqP18miTbsDX0fgdq59fHXnOrn9oLXokt0fadwpl20/ZK0NpWssrMTifVl5y0bZYlZ7JDouvVmx/GjeHPmO+jgGvwcO53HH5cmXX5Kft+fQOJ8Xczcj4vPT1XTtxUPXDZOG55+SO5/O/Q4DAADxUHORohumqwB7apUrsdCGypXjp8raedPkBrOmO6gcP6FT9+fKkaPMkkvFSDuxiKVUFt+mE4tjsv4nIYkFArTKCw3HraUxQ4utfwMVj5Q5+mN7vFFeaG/O1bpbFvx+nVyWue2UV82fuqv6p9fIyrdFRlx3tSymRgwAgMRILlKir9w/UG5FZ/Lqvs2yyAmsXlaBlY7thpbLAx3RLERfDfYEct5b+NX5cvmHSRHBZtrKR+YkMzeMzF/D4KhceLUsUA9veP5FWfOBWRkl8XHpffYcbhRdb1g5YmT45++8oXZNw6efdMuahc6w5RebpFaGyYLbpufWugAAgFhILlIxSpaMt2srXt35ktyuAtdMgNZ6SG7fZK7cDq2SJRXW2q7V2GjtT2fVXryqytPJzNWe1z5Krta5hdmXaFWy8Lph6rFvyaM0WSlc62HZbBLca0LySSfRe/VwnqZpvVqdPP38MfVRnSILZ5hVAACgICQXaXCa9xyvk1WBbdpVgrFTB9ghzYM63WFZtU9Hm51TezHmk+NWAuF57eaYvar+lteML0i1+qfhrf3WFfiOomuf3vn6VfIj55AUj5IfTb/K0zl5/fRROVf/k26n6T46j87LPk4/T9hjHYWX5zSNGipzRga93ybRk0Z5MaxPRlAZ86bJjypS/Pw4HcFDa/h0vxBdtuu1+4Xs5w0xd7P+jfelQf1bPZXO3QAAJEFykYKJQ4dY/9Y3HA5vUqKCaCswDmge1OmGnCeye18n1l58In+zcpnsa7eP2XFrfb4m7rOmjlX/PyZvvtF5tRZWAD93qnyn3DQXMvRyVLOh+NvZgbLdR8essqjtyqfK2qgA2iVueZFNo5zkuPGwPGetcFP7qYL1wDKGlst3ps6RR7tDbZwSeix0k8S5KsmIk0h/sF/e1NcBLv8CQx0DAJAAyUUKxp1nR4cfHI9ox9/6idhdBYbIF1K82KubWq11XaV136KDvkOdWHtx3Fw5d5pGFcs1I9Qx052HP9H3o5TKyIv0vx/L4Th9LRyJj8tQuXjiNGvkK71/97282dVXY7Ms2hPWbKiw7SZOUkGw9bE5Lq/udD325Z3ypD5U6vm+MzdqEIAC99P5/A0dKuOsFVlOchzYJKpighWs1weUcZ/1+RG5cmo3GKygwhwLq8/TTk9/m0U7TWI1fmqMhK1Z/vTWMfXv+TKSjt0AABSM5KLdiuULVmx2XP4WGSjbV+m7kz2dVHtRqZIvpyyraZQZmejVfXGGJR0uo6y+GcfkgL2iw11ZXm4NVXvZph3yXKs7YWyVPRH5Y+ztiifJQyYQ1sO+3n7Q9cfWQ/LzTZtNghGd+BW2n4fkRatlnr/vi0n0wppEHdwhi15eJwsCynhu90tyn/WcKSfMBSuWH403fUasPk/eYZ/3qNewwGqWGNYsLMgwGdUdWjACANDDkFz0dBGjIoXPaeDozNoLE9wOOc/qPFzpBLPOKEVpa89xadyZbDSpuNs5r7lxX8h8Eq3y831W1B49wlOB+/ncYfs5PX1fnCFoA5tE2TKJSnGx3KD7iOg+DfOusmqBHrBi+qFy8XnWI7pGZhjdsD5PysHDdiIddTyN+oaPzRIAACgUyUW7tcpfP9X/5guw1N91ANTNdFbthWYFt0Or5AF91T4imO1q9XE6mQeIu12mj07U450+OgHNmBwF76cJsD19X6xEL3qUqEyn87lz5AHdR0T3afDM5dLFnGQtoincO85kjQAAoEORXKRgvwnyoicpO890XP5U/prgonjH8dZe7DluZUrBIgLdWJzgVunbQ552FadpVLYZk91fKKJJn+7L4HQ6P95o9WfQfS8Wmf4XdrOo3qVyxPlmCQAAFIrkIgVOQB7V5MK5Qtwdr9hnai/C9j9GZ/RYndp1cKsSmfrjdeFDnuY4Kod0AFs+TEbbK3oN3RcllHM1/vhx2W+tSIfdNMrpe2CGoFVJQ/Cs3KPk0anWA+RJ3el80w6rP4Pue7HH0/+iizm1PI07c5rA5dw2xennox2TQ+S/AAAUjOQiDc4V+dBJ8lyT7HXLK/am9kLv/0izysPpjJ5vnoR8ndpVcLv7JVmgArz4CVazHP5Q/9t7Ru9xhoWV8vEhoxdlOyhHDm+chLvvgRmCNm8ZOvlwdzrPKJYvmKVY8tV8RYxopWVH2PJxJgkMPZ6FKJW/nzJM/Vvg6GQAAMBCcpEKp2mRyJVTr5JHJxVnawCKR8mj80x776gOp10sM5pTuR3Uerk6GI/X8xq4IjjP6wu7At4+W3a+r/4/TK74Sqm9oqdr3S3/Yh1OPdys+rz4jueP5s0xQXSj/EuSjuWRTNMoFcAvGWnPNbL5cJ4yVNL50CT3pHzq810xTdbr/Qz6uORwklPd9M71POq1eie3yz7uAfckgMX2XBv2ULNBnM+nOZ66DM/zFssNk9T+fj3GkLljxskV+jW9/VfZYq8BAAAF6Dd77ryzZjkVR1tyJzobPbpSDhywrtX2ajeoAOiB8pAASM8ToIfzNHfbTQV371hNVvLQTUW2O7UlKhHQHVv1SEoBzUP0JGROAKeHOPWPRHTDdGd0oCD2sKqe0Y+cffTsg0+cx0iV3L16nlQ3viX33LvdvuofJtFxsTmvP+i1R0m2nZ5Ez0kiggQcTyPpfjrc77M1qlZEUyHPY/30Z7pB5IHx5fLqzuhRuEKfx/8+RLx/+vX+y3lz1Gcw+NhE7qum9vfJN3eEjNBlq1y4WB66bpjUPr5SfrrNrAQAALFRc5Gi57a/ZE/YZVdiGMelXgVQi9JMLDqIU3sR5rntZkKyoNcXEgino06efv6YSPkUuX1hL6m90FfbN+njWSevBh3P33fc8cw0y1LyNYnaszvgM62DdNMH4znPvoeznmdftlyLfp7DvifQ82oElHefnmtDJVLO4AlBdBnWJISNpg+G47iZWE/tb/QxrZKFKrEQlcQ+TWIBAEAi1Fx0kMxV1IAr5EiiVBY/eLMsKD8m63+yRtbQHh4pm3XHUll6OZ8vAADag5qLDpKpBSifKuvd7ceRULOseewtaZBhsuD++TLLrAXSoJtDLb1cpOH5F0ksAABoB2ouOlLFNFk/1QxBm5FtL563jbhHo9z3++7ftKrDzZgvj9w6VkY0vi8r791Ip1u0m9PPQt7eJIt+UWfWAgCAJKi56EgHd8gC0wYcKdm2Ue78ia7BUHrJ0LToeg0kFgAApIKaCwAAAACpoOYCAAAAQCpILgAAAACkguQCAAAAQCo6JbmgvwUAAADQ+1FzAQAAACAVJBcAAAAAUkFyAQAAACAVJBcAAAAAUkFyAQAAACAVJBcAAAAAUkFyAQAAACAVJBcAAAAAUkFyAQAAACAVJBcAAAAAUkFyAQAAACAVJBcAAAAAUkFyAQAAACAVJBcAAAAAUkFyAQAAACAVJBcAAAAAUkFyAQAAACAVJBcAAAAAUkFyAQAAACAVJBcAAAAAUkFyAQAAACAVJBcAAAAAUkFyAQAAACAVJBcAAAAAUkFyAQAAACAVJBcAAAAAUkFyAQAAACAVJBcAAAAAUkFyAQAAACAVJBcAAAAAUkFyAQAAACAVJBcAAAAAUkFyAQAAACAVJBcAAAAAUkFyAQAAACAVJBcAAAAAUtFv9tx5Z81yKo62NJuljlIpQ5avkMFlIm0vrJKWdVvN+h6oYpGULLtRiszdjKYN0rJ8rbSZuwAAAEBP0PNqLiqmyzkqsdCKrvmKDLQXAQAAAHSxnpdcHNwunzfZi20vvCGn7MWe6eBaaVnyLWnK3Fb17NcDAACAPq0H9rmol0+X28F4j24SBQAAAPQydOjuy8ZMl7sfXCprVy+VRxaWmpUAAABAMp3cobtSBtZ8UwZ/uVqKTL8JkUZp27VOWv+wVdoOmlUZ2c7bQdpeWCYt6+rNvWBF0+6S4vnu8nJln8eUJ06HarW/S34ogyeXZzpdt+3aIK2rIjpbV8yUIdfXyDnubZpq5fONv5NPd0Tvq8hMKV61RAbG7tBd6PH0mnXHUll6ubkjx2T9T9bImg/MXQAAAKBAnVhzoQJnFbgXX+MP9FUQPnmJlCx7WIprKs26dAxc8rCU3BKdWAQqGylFKkmw9teVJGhFk2+UkuWLckd40omJKq9s2RJPMqIVlVXL4FvUc00zK1LR+ccTAAAAiNJpNRdFNSrQv6ZcpKlWWp94WE5lrqpXStG0b1q1C/Ln/DURmvNckTUX0+6SMpVY6Cv5J1b/c6bWoGjaIim+RQ//qvZDJQPeDtT+mhL/tndZyYp2avW3pHWHtWgz5elaihNP/E69Pme/dO3CD1USoF57YJlu8WsuUjmeulnUbVOkWj1Nw/NPyZ1Pd/QwwgAAAOjNOr3PRdufdeBt7ljqpW3HwyqY1h20IwLhAhWVj7D+PbX6Lk9zpLYda6Vlda1aqpZzomoSdNC+xL/tw9K6y14uKvfVCujXsEK9huU60He/jno5te4us90IKaqwVqamXcfzg+3y03tXyqJbVpJYAAAAoN06Lbloq33TuhJfdM0PpbhmZupBdhI5CUJGo5zQtQHmnltbY6NZypXp41BRKQN1DYlulqWSjbJVv5XiyfoP5TLAznnarTseTwAAAPRtnVdzoed0WLFBTjWVy8BrdJ+A31pBd5kKvjsiOG5rbLD+HXjLXTLQ/dy6L4Vp2tTWmF5NiWY1uVquXtOyFVbTq4G670WZbg7VATr5eAIAAAD5dG6zKBUQt+o5KlYsk9YXalVg3ChtKvh2guOSJSooNg9tt0wTpmopdgJvfVu2xJ7Ve9cqOeHuM9FeVn8MlVDo/hpN6rW9sEpa1etsUTc9J4fTnCpVnXk8AQAAgDw6vc+F5aDuh6CC/+V32TNUr1ilAmOxRjlKd4QjuwmTt2N0oxX4t6zaGmOo17ic2hDdAVwlE8vVa1u31ep70ebpf9FBOu14AgAAAOE6LbkomhZxFf3gVmndqDtZq8eVp9SeR89vMVnkhO5krQPuzO0uK/BPL7FwaXpTTgXOZVFZWA2CHgrXLIZJ5XgyiR4AAABS1DnJRYUe/nWJlKx62G6qU+G9mm7NKZHpB+EZ+igxe7SochlQ3YlX7stutPs7mLv2sLB3SYke3tbq0J3PQTndpP+tlsHu51HHx9tvJJ3jOavGHoZWG3Hd1bJ4jL0MAAAAJNF581xMWySD55s+CWFizkwda54LFYCXLNPzWYTLnTnbmeeiUU6suEs+DYjLw8rOzDsRRA9r+2exJrzLmR/DJ/R5dq2SplVbzZ10jiczdAMAACBNndYsSs8voTsft6zWIxx5h3O1Jp5brYL1GIlFbAe3y4ld4cPGamnOnN227i5r/ow2q+bBMK9L98E4Fb0rGdbzvKCex9y36Od5y5vppHE8t6x7S2rNpg3Pv0hiAQAAgHbptJqLzmVqICTqyn2lDFyiEovJKhiPqgEBAAAAEEvXjBbV0SqmyzllKmn48/aIK/f1kRPiAQAAAChM70wuDGv26mm5IzXpDs9D9OzZVt+GWjlBrQUAAADQbr20WZTIwCW/tZo8RdJ9E554OLDjNgAAAIDC9NrkQrNHVLpCisrKPbUXzihRek6K1DqQAwAAAH1cr04uAAAAAHSeXt3nAgAAAEDnIbkAAAAAkAqSCwAAAACpILkAAAAAkAqSCwAAAACpILkAAAAAkAqSCwAAAACpILkAAAAAkAqSCwAAAACpILkAAAAAkAqSCwAAAACpILkAAAAAkAqSCwAAAACpILkAAAAAkAqSCwAAAACpILkAAAAAkAqSCwAAAACpILkAAAAAkAqSCwAAAACpILkAAAAAkAqSCwAAAACpILkAAAAAkAqSCwAAAACpILkAAAAAkAqSCwAAAACpILkAAAAAkAqSCwAAAACpILkAAAAAkAqSCwAAAACpILkAAAAAkAqSCwAAAACpILkAAAAAkAqSCwAAAACpILkAAAAAkAqSCwAAAACpILkAAAAAkAqSCwAAAACpILkAAAAAkAqSCwAAAACp6Dd77ryzZjkVR1uazVJ3UClDlq+QwWW10rrkYTll1uY17S4pu6Xa3Mk6tfpb0rrD3IlhoCqzeHK5tO1aJS2rtpq1PVDFIilZdqMUmbsZTRukZflaaTN3AQAA0Lf18pqLChlQpv5pOlxQAFxUPsIsudXK5wUkFjogH6wSC62obGRuYI6YdIL4WylbvohjCAAA0M317uSiwgT1BSYXbevukqYl3zK3ZXKiSa0s8Dnk4Hb5XG8njXLqz9t79tX9g2ulJXM89G1V/FogAAAA9Bm9Orkoqr7CSi5OvdWeJknJaj9E6uXT5ToQv0ta19WbdQAAAEDv1buTi3LdLKlRTjfY9xOZ9hUZqP5pX4KC5Exy15nGTJe7H1wqa1cvlUcWlpqVAAAAyKcTO3SbztVNq6Rp1VYpmrZIBs+/UQaawLGtqVZOPPGwnDpo389wOhPvsrfLFdZp27u+LW55PkU1D0vJNSInVtwln0Y9NqQTeCGdnosqZsrA62vknMnlmf4Fbbs2SOuqtDtNV8rAmm/K4C9XS1EmcG9UZa2T1j9slbY8x0RkphSvWiIDC3ltvuOfKU+9pznbq2NZMt+9bxECPxfte32z7lgqSy83d+SYrP/JGlnzgbkLAACAUJ1Xc1ExXc5RgV6bjJQhKtgvucUdaKrgs6xaipc9LEMqzArHCLvfRFtjWEQY1mzJrN91WIqW/zZ+eT527UdD3oA0uBO42u9Y/S1UMKyPybIlVidwd8flosk3Ssmq/PsZn0oMVNJVfI0/eFflTl6i9uFhKa6pNOvSYHfI9h//THkhry1WYhGos18fAAAAHJ1Xc+G5st8op1b/s5zYUW8H3hUqIPzeEjv49F2JtmsOysOHgQ2r2fAMnxq/PC9zhT7yMSHM680/fK1Tw6KXffvpXIHXgXJKw746x1OaaqXVU3NTKUXTvinF89V79Odl0hLZT8Qclxj7lCnPvLZW9dos6j0Yot4D+3VHDRUcvywtldenm0XdNkWq1dM0PP+U3Pl0dxpeGQAAoPvqtJqLzJV9HSTqTs6ZAFo5uFUFghvs+75hW/P2mwip2XA6cxdanocZbSq81iSc/Xrz9/coqvmhHWAH7afUy6l1D0vLilVqf9NtGtX259/5moSpcneospZ/K09iUQCV4BWbxEI3K8skFpp6Dz5dbkbikmoZnHJtQrte3wfb5af3rpRFt6wksQAAAChAJyYXJsgMC5IPBo3GVGk3bWl6M7RvxMApdm1IW6M3YExWnk8mcSk02K6UgV9W5Ufst22mDLaC71ppjboqrwLx6OeJr632Taucomt+KMU1M6UoteZWAczxk13rQvqr1MunG2utpaIvTw9P8grQqa8PAAAAHp2UXJgkIUbfBQ/TTyN8GFjnef01BAnL87ETlwInz7PEHL7WmYdj1xudN2+EnrNixQY51VQuA6/RfRB+K2Wr9CR1ui9CusG4U1sVWfPTYI5RWhMNduLrAwAAgFcnJRdO5+qIIDpowrvYnbn9NQQJy/Nwak3yJAhB4g5fm/f1dRAVgLfqOThWLJPWF2pVIN4obWXZYLxkiQrCzUN7pN7++gAAALqpzkkuTLAdFUQPvN7ufO0OyLNXvoObJRWZ581JAGL0lQgqzytm7UOAuP0tutxBu09H6/K77Bm4V6xSgbja/8lLUh1Rqag8orrAaTqV7zgnqdnopNcHAAAAW6ckF/mSBD2yUvFkveBtghTVmdsaFciMPuVPIjKduUMUhZTnESMhChN3+FqnSVDRNd+0k6QgFeleZS+aFvF8uqO70wciKiFw5An4nf4PMrkmZCjdShmiR29S8g/ZOyJWk6ZUXh+T6AEAACTSScmFDrZFBt7yWynR7d6te5o9v4MzRO2p1UHDkZbL4Otd2+hhZPW8CdeUy6ldjdaq4M7c6t9rVgSW5yQlweV56Y7GA504tEJtPy3fFW+nv4d3BCQd9Gaex3Fwu3xuRksqXn6X+rvruXVZ+tgsS/Equx696ZYl1twSVtMgd3mKnsSvOCRh8zoopzOjPHnfG89rPLhWTuzSC+o91PNLuI+dHoo2MwRvrZwIHcFpq3zuPMf3Fnmf3/9+pPT6ZtXYw9BqI667WhaPsZcBAAAQrRPmuTDzOEijtOmJzKxgMlfbCwFzD3jmxnCzhzY9Va3nNPDPnu2UV6sSh2rfxG0O35wLgcz8CuZeRkFzO3gFznnhmY8jV9ozdOfOlB2gHa8xd94Q9zweQez3MnL288hj5J0jI43XxwzdAAAAyQyoHHvxcrOcipMnPzNLjkvl3P/rCin62/+Sj372ezk9epJKMIZmqkx08Hz8ifvl+BsfmzUuh/+kHv9VFSgONStUUvDC/5LWhx+XU5+I/Kc5t6i/1cnJ3/7JFSja5cm2X8qxx17ylacSnF2bVXmPyIndAeV5HJDPd/2dFFWNl6Ih9pq2plo5ufFFOXU4etsze+uscv37feKlA3LGrMn45D05+XxtznHRk8CdeOaX0rrutdxt2uHM4ffk81d+J583/530Lz9PvTZnH83rU2Ue/9fX8iYzZ/b+u3z+d5Xyn8aN8O7z1u3yfzzH52P5P5nyssfSfi/+lxxbbr+XkfQx2nVEvRejAvb3d/KZq7w0Xt8HHw6QsRPKZYTatOH55+Th1/2faQAAAATp+JoLc9VZgmomAAAAAPQaHd7nwulcXfhEdAAAAAB6ko5PLiJGfAIAAADQe3RwcpHOTNkAAAAAur8OTi6ST0QHAAAAoGfphKFoAQAAAPQFHd7nAgAAAEDfQHIBAAAAIBUkFwAAAABSQXIBAAAAIBUkFwAAAABSQXIBAAAAIBUkFwAAAABSQXIBAAAAIBWdNonerDuWytLLzR05Jg2NH8u6xzbKlg/MKgAAAAA9WhfVXAyTEeVjZen982WWWQMAAACgZ+u0mguPMVWy+LZ5sqD8mKz/yRpZQ+0FAAAA0ON1Tc3FB3Xyp7eOmTsAAAAAeoMu69Bd3/CxWSrAmOly94NLZe3qpfLIwlKzEgAAAEB30GXJReWI881SfLNqpkh1ub084rqrZfEYexkAAABA1+vioWg/lsP0twAAAAB6hS5OLgqzZd1bUttoLzc8/yIdwQEAAIBupGtGi1IqFy6Wh64bJtL4lqx8bDvzXQAAAAA9XJclFyKlMuuOq6Xm8mEywqxpeP4pufPpuNsDAAAA6E66vFmUk1gAAAAA6Nm6ruZixnxZe+tYkcb3ZeVjb8qWD6ixAAAAAHqyLh6K9pisf2wjiQUAAADQC/SwoWirspPo3VFl1gEAAADoDro4uThfRhYwEV7lwursJHqXVzOJHgAAANCN9Kh5LryGyRVfKTXLAAAAALpalyUX9Q0fm6X46p+uzUyiBwAAAKB76eIO3YWqk5/eu1IWPf6+uQ8AAACgu+ia5GJMlSzUs3Mn5Iw09eYbjDIFAAAAdBedllzMusMe5cm63T9PqvXKxvflTwWNFqWMmS6368Tk7VpZU+i2AAAAADpMFzWLOiYNb78lKx/bLvVmTX6lUrlwvjxy/xQZoSfe+0WdWQ8AAACgO+i6GboLViV3r54n5W9vkkdVYhE/KQEAAADQGXpQcgEAAACgO+uy0aIAAAAA9C4kFwAAAABSQXIBAAAAIBUkFwAAAABSQXIBAAAAIBUkFwAAAABSQXIBAAAAIBUkFwAAAABSIPL/A/xARMrgpSJWAAAAAElFTkSuQmCC;" vertex="1" parent="1">
          <mxGeometry x="740" y="770" width="791" height="707" as="geometry" />
        </mxCell>
        <mxCell id="UVmHHnLCvwMdaiuQiLW1-2" value="" style="shape=image;verticalLabelPosition=bottom;labelBackgroundColor=default;verticalAlign=top;aspect=fixed;imageAspect=0;image=data:image/png,iVBORw0KGgoAAAANSUhEUgAAAocAAACMCAYAAAAOTAMIAAAAAXNSR0IArs4c6QAAAARnQU1BAACxjwv8YQUAAAAJcEhZcwAADsMAAA7DAcdvqGQAACG9SURBVHhe7d0PcBTl3Qfwr5a+kgCFkPCWO4RcIAT/1yRGYwOhUsQKRaKVFOr0rc6IU1LfwtjpK/TV4WXqVB1feZFxIiO+UzvzWmLgdaAUfEVKNRUbzT87ailpSA7QJFMTLkyFxJa27/PsPru3e7d7t3dJLsnl+5k5uNvc3u7tPnfP737Pn73kui9d/w8QEREREQmXqv+JiIiIiBgcEhEREVEYg0MiIiIiMjE4JCIiIiITg0MiIiIiMjE4JCIiIiITg0MiIiIiMjE4JCIiIiITg0MiIiIiMjE4JCIiIiITg0MiIiIiMjE4JCIiIiITg0MiIiIiMjE4JCIiIiITg0MiIiIiMjE4JCIiIiITg0MiIiIiMjE4JCIiIiITg0MiIiIiMjE4JCIiIiITg0MiIiIiMjE4JCIiIiITg0MiIiIiMjE4JCIiIiITg0MiIiIiMjE4JCIiIiJT3OBwzpyAukdERERE6Y6ZQyIiIiIyMTgkIiIiIhODQyIiIiIyMTgkIiIiIhODQyIiIiIyMTgkIiIiItMl133p+n+o+47kVDanTwfVIyIiB5OWYP/1ZYia+Kr/GNY0H8Vx9TB9zcTGonW4L6MXP32vGtvPq8WjQg7KV5egoigPfp9ahA5U3/sq6tQjIiKrtM0cXjljCXYUVeF3ZY+at/1XLMHKSeoJNIrJilacs6IluFItSTcsn0Mp/cvLYJRvqETVCmtgSEQUWxoGh6KiuKIKNQVlWJyRrZbpAtlleOz6KuyYoRYQpVyals/zR7Hq2I/xJfO2D2+qP9FIysGsmfq9pl21WHNvtboxa0hE7tIsOFRNO9my0u3Fm627sMasrHbhkTMnEEQ2Fmdfqz+dKKVYPmmEdDVjz7Ee9YCIKLb0Cg5nlOO+DHnnBB55rxrf/6Tb0tepGwdO12LVe7vwpT+8r5bR6DQDc7XzmGZYPofJGCovuaX44eNVqHmxCttW56iFRESjSxoNSFFZGVFJvNn6Y1HxqsUJkP3A1s+WzX1qAXoR7P0NNonKOrJD/corHsVj2aKSP1aHeVfcZckGyUpfNh1GLtNWE9R+Qu+oj0nXYv2CReEmxn7x/DOvaIGDm0T2M3J7x8XjlWLf7hf7ZgweCPYeE+vGGDQg9nHj7EW4xbpO/wm8cKIWB6I63ie5vRmV2D97AQJeKvnefUMaQKXmeKr1xkH51F2LHWUVWJzIgJREytlQlJeEyrVhpjgP5XjCsm15vl84I47VbHnMYw9IKd9QhapC9QAh7N+yG7tPqYfDRNvmzGZs2lwPDi0kIi/SJ3M46Srcon1Zn8DrCVe8skJ8VPUDU4s0otLIrkBNWRU2Og4UyMH9siLVKlkpG4tnLxEVb8SygkqsVI9MGTlYL/ueXS8qUGvfM3F/ccE6/O4Kp6bFZPdTENvLF5XhDrG/j1kqQ0n2datx6cx/5Zwq/E7so3w/tnUyFuCx6x/F/jmqQ1OkJLbnqaIfUik8nuOifCYvmXI2mPKSXLnWA+eaAntQavQVvT9TLRiNfFmYo+4SEcWTPsFhZo7+Jd97HAe0Bd5dOecu1dwnsyi7VB8wcXtvH37aL5dn477rHSpQWTlrU1fofca052aUiQonYhkW4NaoQQYLsFhUTDLr8Ij2XP35j5zp1f8sKv3IgQnJ76ckKz1Z0Yt9s6y7pvWE/mex3+sj93FGJWpmy8BAZov2WfrH6evJLERg9l0ugUmC2/uk1nyOOZhBZp3MZZabUxYoCSk9nuOgfCYtmXI2mPKSZLleKYNqh/OwRpyHN/vlsdaeFlPdvmY0den3Ow++PuxZQyKiZKRNcHhlRpL9dyYtwROqopDNQbbmsvPvY3tzuAK93yGbEDzzimpC6sZrPXrFaV128oK2yFHwzC6s+sNRSxOW7HdWjTWqArYNTBjkfmr6ZTNjNbZb1j0uKtlHVH2fm2FdbyY2zl6g3dOaHU/bmy7lequ0QCgbt2QPxfZSLMXHM+3LZ9KGoJwlJMntifNwvzwNDufhuDgP3zfPQxyn6vHUZn3E8EN7hnuAiPhBsvp2VMhm7K4QTusLiYjiSrPRykkwMzq/cekn1I3tZ/RsUCDnqqim0FP9lspasS5ru6AihSi9+HVv9LrS8d4/6H2DMmeEtzfI/dQqNdmXSj2yctxHoxm0/xiec2sG/eS4lrEZku2lWqqPZ7LGSvlM1qDLWYKS3V7c8zCK5JZi24ty0EslnpDzG3Z1YP9O9jckIu/SJjg83q9+hSdYYRkZneCFGB3BLvToX6yyn5m2IEUs20v5fhqVYUYZaiwTNdtvFVisPXnsSfXxTPfymbRUl7Mkt+fpPIxSneL2sX6XiMiT9MkcjlQFSeQFyyelyql6PKRNdF2L6oMh+H15qPpuqR4UExF5kD7B4fnf49fx+ojFEMiM0bveyDb096BNWzDMYmwvZftpBDNyGhBLh33Hm9epShKVgkAqZcdznJTPhA1lOfNSXga5vZjnYdTpQd2e3ahuEXc5WpmIEpBGfQ7DHe7dR9AKcm6zGeHK2ew/lb3IZZ1wB/Zgz++HNAia6zj1hfP2Ur6fRjDjur1UyMG8RLc9SV6zWG8edJ1mR0j9eU/v8ukqXsA2pOXMQ3lJcnvh83Cl8+j1SR4n4uYk2EQ0BqTVgJTjp19RIwbl1B5V2DHnWkv/Ljl5bSX2y7nNCiyV8/mjeEGrs9U6lopZq6jlPHHal/4JvHDauYN+cuR8cRH7GGt7Kd9PY6CD5VjaKtOZWDlHHM8yt6leBuN9vG681wVLsNK63Uliu9b3HmGlZZLomEHYCJz3tC6fUT5Bu/ZeZabU/hq28zkk5SyR8pLk9iyZ38eKxN8s6xjnzUu/yPKKIhT79Pv+Fbdiba5+n4hoNEmjK6QYZloqMCdyjjI5FYV6qIm/jpy+wjpKUb8Chf1qF3JiXTl/Wuxl4W0FRWXjPDda9PZ0ie9neB231wzvozZ1SUSFb/zNVf8JbdRu+HUHtz3TpCWiwi3Tmy+jyClknEcKG+dF574PutQfTy/bHLvl08617DhcscT1uYaochYhwfKS1PZibUM8/80Lcm7I2Mcm9VdIycHaxyuxCrxCChF5l1aZQ103tjfLyWyP4c1+LZ2gyEuNyQl9IyteybqOWqSR68hJcuNXhInrxa9PqEl3Lds09tF5e6nfz+Onq/XJlnvFNtQyjXYZNbHN5hgV9mCcP4pV2uTC1nMoAxZRabfWOQaG0oEz4WMTns/PzUic93Qun3ay7Kw5o08qbZLnrzfqDQ6+nCVYXpLantqGXCcs/PznPExhxEmwiWgsSMPM4WgXP/NENHJYPtMLM4dElLg0zBwSEZGNrwiryzgAhoi8YXBIRJS2evDb5pB2r3hdpTZKWr/djnJtKRFRNAaHRERpLLhnNzYd7ECn6utIRBQPg0MiojQX3PMqHtosr5pi3F5FnfobEVEkDkghIiIiIhMzh0RERERkGveZQ2ZGo4XmX6PuERGNT6/9e3JDdmSzPY0+l5j/uIn5x2FlbnkYduEfMSM8d8wcEhEREZGJwSERERERmRgcEhEREZGJwSERERERmRgcEhEREZGJwSEReZdTgifvWYaF6iERjV+B1WuxbUOBekTphFPZcCqbKGNyKpuCZfjZsoB6ENZy+Hlsb1UPRpIMqtYUYqZ6aAq1YMtLDRgTJVAc4yfFMZ4ZCmLXa4fxVo9aTuNXOpRrF5zKJj4ZHD6xIkt80R7BmmdGwxetO05lkxgGhwwOo4zF4DBQWomtN0xTjwwiiHlWBDHq0Yga65Wouf8xjqlLgB6pu3EvHq4/qx6NB9PxzXvuxvKsPhyqqcXL6RRUp7pcW8qY8w+/fGx8cAkK5d32o/jOoTZtqSbB8hkZHHa2NGPfvjbUnQqfwEBuAVZ/dymKfWqBEBkcBspKsfrreeI5IohSOrs6sG/nq+K11AI3uaXYtrUIfnG382AtHtrjpfDkoHx1CSqK8uA39yuEpoNN2LOnNfqclN2OmnV56oE7t+0bAaL3/RsZDA4Tw2ZlSgvB+lp859nn1W0vDoXEwlAIH+l/Hnk9DXjY3D95O4oW9afRTwQ3t8kAQAY3oyTYptFhBMt1YX6+umdRMFcPDIdY5yER+DxTbwsMpeCpVjy1uRqbdnWgUy2z0gKndUW2wFDy+/JQtbVKa5KNFa4GbhQBnrrvL8qP+VyNCCZ/+HglqlZYA0MpC8UrluKJx29HcvlQd8E9u1EtTrp/xa1Ym6sW0pjHzCEzh1HG/hVSVPYgMnMwqqh9HAOZQyMrGzfjZ2Rm0qBJcWilceYwyjCXa1v2LzqLvXD5A1g3Vz1wyxx63Dczc2g2meagfMOtqCq0ZAC1bKIMGnPwLRGU3SECMjNzaGbkQmja9TqeOhY+8Xo2UQaNIezfshu7HTOIOVgrXnMVmrG/OQ+rViDGc6UC/PDFpSiWd7s6UL2zwRLMhve9aVetbV/M/exqxqbN9UmeM7XtQb3G8GLmMDHMHFL6UdmDlrbRGhiOJfmokM31okJ9blw1BdNo1tIuw48AbrCNhcjHDTIwFH8byuxlU6Pedh2otAeGkr+wCFVb12KbCgytym/Qm2o7D9oDQyl4rB5Pba7FpljBXm4+SsRrdja3Yfe7MjOZhZIbc9Qfo5VvMAJDGaDJJmvrNntQ98xusb2IwHDItGLPwRDgK8LqMrXICy3TWYWaF6uwbbX7e6PU+9wXZ878D3Xf0dSp03DuXJ96lH7G6vubkLkImbkbMGXevfjCrG9gsrhNzPw8/nr2A/xdPSdKZgATcx/FVMs6k7MDuORvXfhLf/gYDGT/s7onMx7fxr/NPod9f5SBwXQsLF2E71V8Fd++sRh3itvNOefQJv7mdAQDBSW492sLsX5xmfbcO2+cJ56fiYFQJ05fUE9ykiO285WV+N5tZeZ27pyfjcs+C+HD3n71JHeB+cW4xT+AloYP8WGs7VgECpZh89fE+1qstif2NXDpZ+j+yPm9Dd50lN6YB99AN954v9PTNvTj+XVxPMP7eHPOZ67H3xD93qJvN1/agSMfORzbghuwft40dH94DHud/m6VPQ93iucigfdkkNnJZyquxmXt6pzl5OObX1mKf7GUAaeylux6UjLHM7ntZeCa667C/IwB/PED72XS5LQN8XkY6DoZ9TnS968Mgb4m1PeqhVHU53pxNnreFa+hlpoS2F60xMt1QlQZu+RkB/7o96HwEuO7SVBltUX8Tbap+kId4b9JCZbPb5frbaRdzQ14+www7eprsXR+hrbMLgNTpqi7wt59Ddr/uaUlWnD35z9+iNd+73TgLqDvnLrr5JprcV9xFlrffBNvv5+J6yrmYsGUz9D4q4+i910EWRvW+jAFIez/z//DWy6v23fOYT/mzMfdYjv4tAtHnF7bo77zk/HlW3xYcOk57H3HtfDZlN97B1bN1+9PKfDj8y0f4INYx2QQxmvmMFnMHI45IsDLfxrZV6/HpCwfJqil0oSsO5Bd8jQmZ6oFFhOyfyDW+QmmRqyDicWYNPcnyJ7l0JslZx6KxHdG91nxBSs7nj94N9bdELB1Pp85dwnWl05XjyxEQLJ1WSEKs6yDRKaJ5xdi3ZpKbCxwWEeQgcyTa8R25ornqmWarACWL7sbTzptK8Ll0+U2+/Cxpx/I+dh4zwNiX8X7siUFpqHwhiXYek9J/H4+w05W5nIf5fFUizTyeIp9fLAS33T50b1weaXDe/NuYb58931obktd1lAGOD9bswTLI8qAvB+rucr7eskfT6tk9zMRrtsQn4d1ax6I+jwE2zrQLf4vLIlRbkUQtVx+rhsbo/qPJrq9kRNCl+xXPHeuOa1SQH3uu0RRjUjiDUqxSk8Ga5vQ1KXd9aSuUQSpgn9FCVScmRA989iBd47JR614R6ZDfXm42eG1zL6JLU0xmp2H2ak2NMjjUzhvyPs1Uuoxczim3l8Ak6/9ifiVKn+mdmGg/XGca/tv/Lnzf3G+swl/u2QaJkwpwMQvfB6f/cmSQRSB4Yy5xdovgYuh5xD64L/MdT4T62RO8ePSKVfhkr7D+MtfLZnDy6/Bt8Uv7U8z/Li1JE+fwmT/Eex44y3se7cDPTlXQf7gnCx+idt+ocvK92tfxvyMPrQc/iU2vSqf36St815fJq6cNxPz5/nD2ReDCAyfEYHMZHG3u/0onnrpdbxorHdpJm7xT8Nkv8N6Nvm467Y8+NqbscO2T05U/yi5n41vY2ed2N4bcnvi1n4Ol83Kw3wRTE+LmYVJlvcMS6B0JR6YN1Hciziexj5mTMT8axyyQOJ4/vgGWcX34ZBY7zG13nt9l4pz4BPHWfbZqsUOscwxayj28eYbZcZL7OMbDhmmSEZmJsOHW1TGKfLmltGadvnV2vn9NDMba68W+2wra6oMhD5GX8R5T2a9pI+nkNx+Jpk5lJ+HRfr508rnK8bnQZ7DbHEORQAX+Xm4MIDs+WJbWRnod/mcLLzpq+Jz24e6usboz1+i24uSmszhp+K7a1/IL87FTFyqlanpuG1xEeYPHMf/fACUXCPKt1vm0GP5NDKH8M1F3icye9iLt3/VgL0t5/BP07KwwOeURQxnDnGmDX/KldnDLJTcUoK7b8rB5wf68MEZLwWgAJXr58Ivgr2nVRbu1IQc3F3swxcudERlIq+7tVw1QTe6ZCljMDKHU3xYWiH20+Gmv3/1fFcX8On0fCwtmIhOjxnAU92fQ94VPvhFldZ58ACefjvBfU8AM4eJYeZwDJkw618xSdZpA79Ab8MPcK43iIv6n4QgBj5+Gr0fPodzJ2ssyxdhqggMpYH2b6G37Te2dS7KdTrlzz0fLsuy5xr0X+IyayD+b9yL77wk57YzvmzP4q13W7QshSv55dxqDdDOIth6GA8/uxe7ojrmi0BNdTSXU1Q8fKjNkn0R69UfxpZGWdVMQ1F+jOxFTpaWNdCynXEsXC6nvBCVu9iX7fVie7YuOm14+TX9/fmmj2C2JKcE67UpevTBDNutx1Pu40tqZLb44bAyIqtjnL+Ww+JYW9YLtjbg4cNOfbYiTYc2yDKFo74L5wa0gS/2siaJMhAjE+x5vUEcT6tk99M78QOrxPg8qPKpPdJpnyPtHEZ+Hs7i5QZ9+fIbHUbzive/UvbLE5/Nd2z7mez2RsZM8ZkM1jdrfQu1UcuqlaOlYXgGQhWvq8K2SjWy+FQrfv7Mbqy5txbVh5xHKRvqnqnGpoPqOb48rFpXiZoX1+KHq2OPUkbZPK3/oNHfUXPsJJrEf7FGLXd1RhQ+ORXOi3qfPvP2eGnsbQ9aFi6/XN2N55Tse1mtDeIZzdPgjEcMDseMRZikzU3QhHPvW4O/CBd+gwHLj68Jsyog48mLnT8SwaS+LNLFUIP2ehMyZusLFL15VlYWsUepRgdiZ/GxrGCzCrF+ufgii2qiE4FlxPdAoLRIG0QiK1y3SauNJjNZMbianqU1h3XFDQ5V53XxNSmby372oMPNaf62VFPvB+3NLqNcjWBAHJd58xL+0vcNR+ArR4PapjcJ3+JOSN5+NLk5EL2uN1THM9n99EoFO/JY7nM7Zq3tWnAUtZ9qubXJ1RDIz9Pef1QQNZjtjZg2NLaL/7KysFB7X0FosZRxjt0kWT79y5fiCRFcbdtQqpqJe1BX+yoekkFii/aLwlFwj3yOnO6mWTVLq2llZJBY5tx/wd6kbIjdtDxociCL2E8ZqEXenrLth7tgZ/q2Mo43DA7HisxZel/B0LsY0BZ4MyFDBpRd+CyU6O/p6ZglKwvtC9e5EjQqGqdA7K1De7GrvU/vw6UFX5XYWOr+i9foJzjYvm16HzlVScQyTPOhDTUj+xczE3o2pGdwRSVp/cEePKt/URcuW4aF1jooJ5yljR9Ep5aXjK8Tr+sN5nhaJbufnhkBjviBtdXph4t2k5lvJ23Yp2XZIzPD03GTbFZ1+nwMansj56028b0m9nmdzAa3t6dkDk59hLLMwN2Ob2nBnT4SWM71F4s+QlkEW1uOYL8WTIogcV2lCBD1v4cV4CbtQOehKiLrV6Utdx+17PNHLD9VrwWmepB3RMs8EnnB4HCsyNCDw4v9cTt+WAREcCj/78TFWF05HF87fpOiEdDJDuDRzooAsRbfqRFBYmNQVLZqgIcWJEZmq4xANM4gElWBuVfM6nU8NIOGm1ydMwjW27BmiIZT62ERoMs7EdnRNaqSbz/qniWiMc1xYEqMgShjlpElFVI+dZUvD3eI4G5bpR6Q1e1rjtnEbDrVit1yWhk59YtQ/PWIZl7VpBxLZNPy6U79tfz+kW3yD/j171Ua+xgcjnsBTPbrX0UXByzZRSOzJgIt55yjx4CuRwSJ9bKfoQi0ao6iJSSDxKWeRoPahftEuWe7wgGt1zypbyT7EybAS1O6c1CsZw+1TJipDy2NR7HF1q/TyVl9RGiMDNpYlfzxTBEjeykCeKcfLLab04TOPQ04oDW55uEm9VmLOfJ8sNsbMW1obOxDd6glfmvBMPEXerhyiYPgu879FfUmZTk5drhZN3yrxX6ti7i9adl8rcLiUXCVEvG5GbEPDg0VBodjRf/Her9A/ze0PoSOMhfZp6kRX+EXtUGoxbgsW1sQxTrI5bylT6KZWXP9Ne6WWczHRtnPUD2y6WnDdtVZ3merm1UfRbGW2wCJQOlSLesRs0+UCmi9NPkZTa6x+k8FCqbH/9LPKdGmwpEZuaSm+YgTeBkZIMwtcgmow0Fz98mT9kq7YBnk1SIO1TwfcYmz6AEHzozzMg2zEg7mR6dBHc9U6jmJZnnsXfczPq3J1RxAovrYRg1EUYZgezaJ/qAYxOforfpaPCwC1uHKhsorisTqUyi+cBzLSfkG9z6FmsuzzEvjhakm5a4O/NZxSpoe/FY7URFNy8Y0MmL5qoo4g12GTQ5u1jqu9uFjz9PpFIQnwd4Qc3QcpRiDw7HiQj0+0zobFmPqtT/AxEzLx19Obp3/NL549XpMjZivcCCk9zKZOPdpTM22rrMIk+V8idogly6ct41wjtdkLBiBWEQFqg0skf0M79HnMrTtjezrpireSHpFJvvHRcyBKCfklXP1GSNMX4uftZABn9nHTk6o7TSnotEcJftY3VNi65MXMLa57G6I79mYFt4YnitvZkIZUZWVE0dopbUvpti2rX+gkQESlfzyyPkh5X5ql2WTD4I4ENH8rQf4IhAfxOhSe4CRBgZxPFPLMupY7qcsI7ayJSekX4YnH1wWNejE1NqojbzWPg/GVYNcR/MOwfY0Hst1hOQ/R8Osqxl7jhlXFzmCJv3NmTpbjmCTdmk9EQxWFIWDvdxSVIg3JPsUbpPXM861v6FA2e3Ypl1aTwSfv7Rcbk41KcurojifJ1EyVZbQ3rTcg907VbN2obqGsnWb4n75huK4zdWDoq7ogpaTqNOXxBVYLfZJriP4R0XWkwy8tvJYen+Za5B99R0R2cGwi6Ff4Fxb9Ejmifk/x1T1xRtNBIYf/gCfWvokhuaXq0pSzoNnv3apQU6WKwM22WcvcoSf8TdX7c5Nmrbrokbxcl1aNW+hemSSoxOdmsIKrNdpjSbnWnwuTtOrfZ+97GOY63GSTXvWa8LKbJYZtDhx2W5OCZ6MM+K6OxREc0OjbaobO3VM3Y6hVZzjaYp6f+FjEff6zRGSWy/J4ykMz/YM0Z+3uJ8lcf4OvXbYtczZ13f/PBsGuz3J9TUczrvB8+fIKGMxXsv1OQmWT/PayiJArN4pr5+sP3Qig70nVLAnm3818tJw35XXT9YfOpHB5UMquJTKN+iDTpp2xRohbFxD2eG6zHLqmq2WIDVK9HWew9eAjsO8xrSzwOq1eGKFvHaz99HNxjqGzoO1wzalzXid55DXVh4PLtSgt+FHOBfqsgeAA0043/4j9DoEhtJA27fQ296Ei9ZhzgNdGOh8Tpsv0RoY6gY3GCVYLweiHMWh9j5bX7fuUJ82LY5bX7e3Dj2PLYeD4nlqgSTXkf3jnvUSdLVhe00LrC1AMvg51ODSPNh6WPWDtE+/0N3egl2yKdZlP63kXI/G9robj3jYxzB5nLZog3Us5P5G9Qk7i5dfksfG/t7k8ZcBrOux6TmJA+IcxCKvfCGvPLPRNUOqRr7KaYmSaTYflZI8niPA7bNkfi5eih2oGXMBSl4Gogx2e5L3ch02mM/RsPOp6ydvKEAgIrMVyJXNoiLAcQqutDn8arFpVwe0qWQtOrs6UL1FBEK2YMsYpRw5hU0kNaWN06hlbXRyLarl3Iq2bYb0LKcIJofn2soFWC2DPC3TqhZ5ENyT2FVnKHWYOUzz95eM0Pxr1D0au1S2SoQG7hm/6Vi4XF6qUFbIsTJhRuYrscwo0VhmZg4TZGYOxxE94+mQyfRKZS+ZOVT/DyFmDokozLgudsxBFWfxkRqYE9tZdbUY2R8tXp8zIhpPZNOwbArvPPh60td11qfACaHhXf7yHC0YHBKlMdm5P2pgkGAOutH6hnkYfNGjX3KvW7zSunsYIBKRpc+g7DuZbMYvtxTf116jKengkoYem5XZrByFzcrpIfYAH8XDAAMbOcjltiwcEOtEXgKRKJ2wWTk+GRx+398U0XfSqxyxfokIDPPgl30wN7/qeZRzMtisnBgGhwwOozA4TB+BghJUlOTBlzXNNmrZGKX8TqvzHG1E4x2Dw+Gmj7r2tRzBDhFcDvf3EIPDxDA4ZHAYhcEhEY13DA7TC4PDxLDPIREREaU1GSPJQMn99o8Ru/3duP196G9O2/NyY+aQmUMiIiIi07jPHDIwJCIiIgpjszIRERERmRgcEhEREZGJwSERERERmRgcEhEREZGJwSERERERmdJqKpvyDVXaBcB1IXR29WHfzldRx+s1EhEREXmSxpnDLPh9eajaejuSm+eeiIiIaPxJ30mwcwuw9rtLscoXwv4tu7Gb2UMiIiKiuNI3c3iqFb9tDqkHRERERORFWg9ICXb2qXtERERE5EVaB4cB/zR1j4iIiIi8GAdT2fThY/Y3JCIiIvJkHASHREREROTVOAgO81D1eCnKc9VDIiIiInKVvlPZaHJQvuFWVBRmwa+WdB6sxUN7etQjIiIiIrIaF83KRmBIRERERLGld+aw7HbUrMsDujpQvbMBdaeYMSQiIiKKZRxMZRPCfu36ygwMiYiIiOLhVDZEREREZBoHweE0zOJIZSIiIiJPxsWAFCIiIiLyJq2DQ15bmYiIiCgx42BAChERERF5lb7BYW4BVq/IUg+IiIiIyIu0muewfEMVqgrVA0NXMzZtrsdYvcYLERERUSqlcbNyCJ0tzajeycCQiIiIyKs0v7YyERERESWCU9kQERERkYnBIRERERGZGBwSERERkSlucMj+hkRERETjBzOHRERERGRicEhEREREJgaHRERERGRicEhEREREJgaHRERERGRicEhEREREJgaHRERERGRicEhEREREJgaHRERERGRicEhEREREJgaHRERERGRicEhEREREJgaHRERERGRicEhEREREJgaHRERERGRicEhEREREJgaHRERERGRicEhERERECvD//tAjCnSHWS8AAAAASUVORK5CYII=;" vertex="1" parent="1">
          <mxGeometry x="1690" y="1030" width="647" height="140" as="geometry" />
        </mxCell>
      </root>
    </mxGraphModel>
  </diagram>
</mxfile>
